<?xml version="1.0" standalone="no"?>
<!DOCTYPE svg PUBLIC "-//W3C//DTD SVG 20010904//EN"
 "http://www.w3.org/TR/2001/REC-SVG-20010904/DTD/svg10.dtd">
<svg version="1.0" xmlns="http://www.w3.org/2000/svg"
 width="96.000000pt" height="96.000000pt" viewBox="0 0 96.000000 96.000000"
 preserveAspectRatio="xMidYMid meet">
<metadata>
Created by potrace 1.15, written by Peter Selinger 2001-2017
</metadata>
<g transform="translate(0.000000,96.000000) scale(0.100000,-0.100000)"
fill="none" stroke="none">
<path fill="#000000" d="M317 896 c-68 -25 -78 -38 -63 -78 10 -26 8 -32 -13 -49 -28 -23 -44
-24 -61 -4 -24 29 -48 16 -91 -47 l-42 -61 23 -19 c13 -10 29 -22 35 -26 8 -4
11 -20 8 -39 -5 -31 -8 -33 -44 -33 -22 0 -41 -6 -46 -14 -4 -8 -6 -45 -3 -83
l5 -68 40 -3 c67 -5 87 -55 35 -85 -17 -10 -30 -25 -30 -32 0 -22 83 -125 99
-125 8 0 27 12 43 27 26 24 30 25 54 13 21 -12 24 -19 19 -40 -20 -80 -20 -78
26 -90 24 -7 57 -17 72 -23 34 -12 42 -5 59 48 11 34 17 40 42 40 25 0 31 -6
43 -40 7 -21 18 -42 25 -46 6 -4 31 2 55 12 25 10 50 19 58 19 30 0 38 28 21
71 -16 39 -16 43 0 60 22 24 27 24 62 -6 41 -34 58 -32 86 14 14 22 30 42 36
46 5 3 10 18 10 33 0 20 -10 33 -36 50 -24 15 -34 28 -30 38 3 9 6 20 6 25 0
5 20 9 45 9 58 0 69 19 60 105 l-7 64 -46 3 c-41 3 -48 7 -56 30 -9 25 -6 31
27 60 l38 33 -47 58 c-49 61 -70 69 -99 37 -23 -25 -36 -25 -63 0 -20 18 -20
22 -7 54 17 41 8 52 -52 68 -93 24 -92 24 -109 -19 -14 -35 -20 -40 -49 -41
-28 -1 -34 3 -40 26 -7 28 -23 53 -34 51 -3 -1 -32 -11 -64 -23z m307 -52 c0
-11 -4 -28 -7 -39 -5 -16 3 -27 41 -56 l48 -35 24 23 c33 31 40 29 74 -14 l29
-36 -32 -29 -33 -30 14 -46 c15 -46 16 -47 62 -50 l46 -3 0 -48 0 -48 -46 -9
c-42 -8 -47 -13 -60 -49 -18 -51 -17 -54 3 -62 9 -4 27 -15 39 -26 l23 -19
-22 -34 c-29 -45 -38 -47 -81 -18 l-36 25 -40 -32 c-39 -31 -49 -52 -31 -63 5
-3 11 -17 13 -31 5 -22 0 -28 -30 -40 -50 -22 -57 -19 -72 25 -13 40 -13 40
-65 40 -46 0 -53 -3 -63 -25 -7 -14 -12 -32 -12 -40 0 -18 -39 -20 -73 -4 -22
10 -23 15 -16 52 8 45 5 57 -15 57 -7 0 -23 10 -35 22 -19 17 -27 19 -42 10
-11 -7 -27 -17 -38 -24 -16 -9 -23 -6 -49 23 -17 19 -32 37 -32 41 0 4 13 14
29 23 41 21 43 27 21 73 -11 23 -20 46 -20 52 0 5 -17 10 -39 10 -38 0 -38 1
-44 42 -7 53 -4 58 41 58 37 0 38 0 50 56 12 51 12 57 -5 70 -10 7 -24 14 -30
14 -19 0 -16 16 10 55 26 41 39 43 60 13 l15 -23 28 23 c16 12 41 27 57 33 31
13 34 29 11 65 -19 29 -21 26 34 47 33 13 44 14 47 5 24 -68 25 -70 48 -64 12
3 41 6 65 6 38 0 42 2 42 24 0 49 7 55 53 41 31 -9 42 -18 41 -31z"/>
<path fill="#000000" d="M354 645 c-3 -8 -4 -95 -1 -192 5 -215 7 -217 95 -155 33 23 63 42
67 42 3 0 32 17 63 39 31 21 72 46 90 55 17 9 32 22 32 29 0 6 -19 23 -42 37
-74 44 -105 64 -176 113 -71 48 -118 60 -128 32z m68 -27 c12 -7 28 -17 34
-23 7 -5 32 -26 57 -45 63 -49 76 -74 51 -101 -27 -30 -98 -78 -135 -91 -25
-8 -33 -8 -40 3 -12 20 -12 269 1 269 6 0 20 -6 32 -12z"/>
</g>
</svg>
