<?xml version="1.0" standalone="no"?>
<!DOCTYPE svg PUBLIC "-//W3C//DTD SVG 20010904//EN"
 "http://www.w3.org/TR/2001/REC-SVG-20010904/DTD/svg10.dtd">
<svg version="1.0" xmlns="http://www.w3.org/2000/svg"
 width="96.000000pt" height="96.000000pt" viewBox="0 0 96.000000 96.000000"
 preserveAspectRatio="xMidYMid meet">
<metadata>
Created by potrace 1.15, written by Peter Selinger 2001-2017
</metadata>
<g transform="translate(0.000000,96.000000) scale(0.100000,-0.100000)"
fill="none" stroke="none">
<path fill="#FFFFFF" d="M0 561 c0 -300 2 -340 16 -345 9 -3 134 -6 279 -6 l263 0 -34 -67
c-19 -38 -34 -74 -34 -80 0 -14 36 -18 44 -4 3 4 27 16 53 26 30 11 70 39 106
74 l58 56 72 0 72 0 3 77 c3 71 5 79 32 102 37 31 38 60 3 91 -28 23 -28 24
-33 177 l-5 153 -281 3 -282 2 -26 40 -26 40 -140 0 -140 0 0 -339z m274 297
c7 -7 20 -25 30 -40 l18 -28 274 0 273 0 3 -132 3 -133 -81 -80 c-45 -44 -88
-86 -95 -93 -8 -7 -36 -36 -63 -63 l-49 -49 -283 0 c-273 0 -283 1 -289 20 -3
11 -5 152 -3 315 l3 295 123 0 c85 0 127 -4 136 -12z m637 -384 c11 -13 9 -14
-14 -9 -30 8 -33 -1 -12 -29 17 -23 18 -26 5 -46 -7 -12 -12 -12 -29 4 -20 18
-22 16 -135 -100 -63 -66 -118 -130 -121 -143 -11 -44 -59 -67 -68 -32 -7 27
62 109 176 211 53 47 96 90 96 95 1 13 62 64 77 65 6 0 17 -7 25 -16z m-31
-166 c0 -51 -11 -66 -48 -71 -21 -2 -41 -2 -45 1 -9 5 72 92 85 92 4 0 8 -10
8 -22z"/>
<path fill="#FFFFFF" d="M325 650 c10 -11 20 -20 22 -20 1 0 3 9 3 20 0 14 -7 20 -22 20 -20
0 -21 -1 -3 -20z"/>
<path fill="#FFFFFF" d="M131 634 c-30 -38 -28 -98 4 -130 14 -14 25 -26 25 -28 0 -2 -18 -8
-41 -15 -47 -14 -65 -48 -64 -121 l0 -45 150 0 150 0 3 60 c3 79 -16 105 -83
112 -38 5 -47 3 -43 -8 2 -7 21 -17 40 -22 38 -9 48 -26 48 -79 0 -34 -15 -36
-40 -5 l-18 22 -7 -25 c-5 -22 -11 -25 -50 -25 -37 0 -45 3 -47 20 -4 27 -22
25 -26 -2 -3 -17 -10 -23 -28 -23 -21 0 -24 4 -24 41 0 22 6 47 14 54 25 25
81 55 104 55 12 0 36 12 52 27 25 22 30 34 30 72 -1 65 -25 91 -83 91 -37 0
-49 -5 -66 -26z m103 -20 c18 -46 -5 -114 -39 -114 -35 0 -69 87 -45 115 17
20 76 20 84 -1z"/>
<path fill="#FFFFFF" d="M412 602 c-2 -7 -2 -15 1 -18 3 -3 81 -6 173 -6 154 0 169 1 169 17
0 16 -15 18 -169 19 -129 1 -170 -2 -174 -12z"/>
<path fill="#FFFFFF" d="M410 515 c0 -13 23 -15 145 -15 122 0 145 2 145 15 0 13 -23 15 -145
15 -122 0 -145 -2 -145 -15z"/>
<path fill="#FFFFFF" d="M415 440 c-11 -18 17 -21 175 -18 112 2 154 6 158 16 5 15 -323 18
-333 2z"/>
<path fill="#FFFFFF" d="M420 355 c0 -12 19 -15 109 -15 60 0 116 3 125 6 42 16 5 24 -109 24
-104 0 -125 -2 -125 -15z"/>
</g>
</svg>
