<?xml version="1.0" standalone="no"?>
<!DOCTYPE svg PUBLIC "-//W3C//DTD SVG 20010904//EN"
 "http://www.w3.org/TR/2001/REC-SVG-20010904/DTD/svg10.dtd">
<svg version="1.0" xmlns="http://www.w3.org/2000/svg"
 width="96.000000pt" height="96.000000pt" viewBox="0 0 96.000000 96.000000"
 preserveAspectRatio="xMidYMid meet">
<metadata>
Created by potrace 1.15, written by Peter Selinger 2001-2017
</metadata>
<g transform="translate(0.000000,96.000000) scale(0.100000,-0.100000)"
fill="none" stroke="none">
<path fill="#000000" d="M616 932 c-3 -3 -3 -27 0 -54 l7 -48 -212 0 c-227 0 -248 -4 -315
-55 -51 -38 -76 -100 -76 -185 0 -59 22 -150 36 -150 2 0 27 18 56 40 29 22
56 40 59 40 3 0 2 17 -4 38 -14 52 -2 90 39 129 l35 33 180 0 c98 0 182 0 187
0 4 -1 6 -20 5 -43 -4 -71 2 -73 60 -21 28 26 75 62 104 80 64 42 70 52 41 63
-13 5 -62 38 -110 74 -47 36 -89 63 -92 59z m69 -142 c4 -6 1 -18 -6 -26 -11
-13 -14 -13 -27 0 -8 8 -11 19 -8 25 9 14 33 14 41 1z"/>
<path fill="#000000" d="M787 683 c-46 -34 -48 -38 -42 -70 3 -19 1 -50 -5 -69 -11 -34 -12
-34 -69 -33 -55 1 -130 -25 -146 -51 -4 -6 -54 -10 -122 -10 l-115 0 6 45 c4
25 4 50 1 55 -4 6 -33 -14 -68 -45 -34 -30 -81 -65 -105 -77 -23 -13 -42 -28
-42 -34 0 -6 24 -26 52 -45 29 -18 76 -53 105 -76 29 -23 55 -38 58 -33 3 6 3
30 -1 55 l-6 46 78 -3 c58 -2 78 -6 76 -16 -10 -52 -3 -131 16 -167 47 -92
121 -135 232 -135 81 0 126 18 176 72 51 54 64 89 64 173 0 82 -13 119 -58
167 -22 24 -24 31 -14 53 23 51 11 237 -15 234 -5 0 -30 -17 -56 -36z m11
-211 c4 -14 -56 -16 -78 -2 -12 7 -10 11 10 18 27 10 62 2 68 -16z m-128 -24
c0 -6 -6 -19 -14 -27 -8 -9 -16 -27 -18 -41 -6 -41 -16 -49 -69 -56 -27 -4
-52 -11 -55 -15 -9 -15 -41 -10 -48 7 -24 62 7 95 119 128 62 18 85 19 85 4z
m133 -22 c16 -12 17 -30 15 -162 l-3 -149 -32 -3 -33 -3 0 120 0 121 -40 0
c-35 0 -40 3 -40 23 0 23 37 47 71 47 10 0 21 5 24 10 8 13 16 12 38 -4z
m-537 -45 c-10 -16 -36 -13 -43 5 -8 22 18 37 36 20 7 -8 10 -19 7 -25z m414
-126 c0 -25 -1 -25 -85 -25 -84 0 -85 0 -85 25 0 25 1 25 85 25 84 0 85 0 85
-25z m8 -92 c6 -10 13 -32 16 -50 6 -26 4 -32 -14 -38 -34 -11 -80 5 -121 42
-58 53 -53 63 36 63 61 0 76 -3 83 -17z"/>
</g>
</svg>
