<?xml version="1.0" standalone="no"?>
<!DOCTYPE svg PUBLIC "-//W3C//DTD SVG 20010904//EN"
 "http://www.w3.org/TR/2001/REC-SVG-20010904/DTD/svg10.dtd">
<svg version="1.0" xmlns="http://www.w3.org/2000/svg"
 width="96.000000pt" height="96.000000pt" viewBox="0 0 96.000000 96.000000"
 preserveAspectRatio="xMidYMid meet">
<metadata>
Created by potrace 1.15, written by Peter Selinger 2001-2017
</metadata>
<g transform="translate(0.000000,96.000000) scale(0.100000,-0.100000)"
fill="none" stroke="none">
<path fill="#FFFFFF" d="M228 722 c-128 -128 -218 -226 -218 -237 0 -26 428 -455 455 -455 28
0 455 427 455 456 0 26 -429 454 -455 454 -11 0 -109 -90 -237 -218z m435 1
c104 -104 198 -201 209 -216 l20 -28 -198 -200 c-110 -110 -207 -205 -218
-211 -15 -8 -47 19 -227 198 -115 115 -209 213 -209 219 0 17 408 425 425 425
5 0 94 -84 198 -187z"/>
<path fill="#FFFFFF" d="M382 803 c-35 -35 -62 -66 -60 -68 2 -3 35 27 73 65 38 39 65 70 60
69 -6 0 -39 -30 -73 -66z"/>
<path fill="#FFFFFF" d="M241 600 l-64 -58 29 -16 c16 -8 44 -31 63 -50 37 -38 51 -38 51 0 0
48 56 20 90 -45 8 -16 11 -61 9 -140 l-4 -116 53 -3 54 -3 -3 128 c-2 78 2
136 8 148 16 28 45 53 68 57 15 2 20 -3 21 -22 1 -14 2 -29 3 -34 0 -5 20 9
44 30 23 22 52 46 65 54 l24 15 -66 58 c-65 57 -82 60 -70 12 6 -23 4 -25 -30
-25 -39 0 -71 -14 -98 -44 -17 -18 -18 -18 -44 3 -15 12 -35 21 -45 21 -10 0
-21 5 -24 10 -3 6 -20 10 -36 10 -29 0 -30 2 -24 29 3 16 3 31 -2 34 -4 3 -37
-21 -72 -53z m119 -35 c0 -10 -65 -45 -82 -45 -21 0 -24 20 -6 38 12 12 88 17
88 7z m128 -81 c-27 -28 -48 -31 -48 -6 0 11 11 22 28 28 38 15 46 6 20 -22z"/>
</g>
</svg>
