<?xml version="1.0" standalone="no"?>
<!DOCTYPE svg PUBLIC "-//W3C//DTD SVG 20010904//EN"
 "http://www.w3.org/TR/2001/REC-SVG-20010904/DTD/svg10.dtd">
<svg version="1.0" xmlns="http://www.w3.org/2000/svg"
 width="96.000000pt" height="96.000000pt" viewBox="0 0 96.000000 96.000000"
 preserveAspectRatio="xMidYMid meet">
<metadata>
Created by potrace 1.15, written by Peter Selinger 2001-2017
</metadata>
<g transform="translate(0.000000,96.000000) scale(0.100000,-0.100000)"
fill="none" stroke="none">
<path fill="#000000" d="M228 722 c-129 -130 -218 -226 -218 -237 0 -27 428 -455 455 -455 28
0 455 428 455 455 0 27 -428 455 -455 455 -12 0 -103 -84 -237 -218z m460 -24
c115 -117 192 -202 192 -213 0 -26 -389 -415 -415 -415 -12 0 -98 78 -223 204
-176 176 -203 206 -194 222 6 11 100 108 210 217 172 171 203 197 218 189 11
-6 106 -98 212 -204z"/>
<path fill="#000000" d="M274 626 c-16 -18 -44 -43 -62 -55 l-33 -23 23 -16 c13 -9 41 -33 63
-53 43 -41 59 -42 49 -3 -5 20 -3 24 18 24 28 0 62 -32 78 -75 7 -18 10 -74 8
-140 l-3 -110 50 0 50 0 -4 100 c-1 55 2 119 8 141 18 68 95 119 97 64 1 -14
2 -29 3 -34 0 -4 18 7 39 25 20 19 50 44 66 55 l29 21 -23 19 c-13 11 -43 36
-67 58 -43 39 -55 37 -50 -9 2 -17 -5 -20 -40 -23 -30 -2 -51 -12 -74 -33 -17
-16 -33 -29 -36 -29 -2 0 -14 12 -27 26 -17 21 -34 28 -75 32 -52 5 -53 5 -47
33 8 41 -6 43 -40 5z m54 -55 c10 -6 4 -13 -21 -25 -42 -19 -57 -20 -57 -3 0
31 47 48 78 28z"/>
</g>
</svg>
