<?xml version="1.0" standalone="no"?>
<!DOCTYPE svg PUBLIC "-//W3C//DTD SVG 20010904//EN"
 "http://www.w3.org/TR/2001/REC-SVG-20010904/DTD/svg10.dtd">
<svg version="1.0" xmlns="http://www.w3.org/2000/svg"
 width="64.000000pt" height="64.000000pt" viewBox="0 0 64.000000 64.000000"
 preserveAspectRatio="xMidYMid meet">
<metadata>
Created by potrace 1.15, written by Peter Selinger 2001-2017
</metadata>
<g transform="translate(0.000000,64.000000) scale(0.100000,-0.100000)"
fill="none" stroke="none">
<path fill="#FFFFFF" d="M381 526 c-7 -8 -11 -32 -9 -53 l3 -38 -166 4 c-92 2 -176 0 -188 -4
-20 -6 -21 -13 -21 -121 l0 -114 191 0 192 0 -6 -43 c-6 -44 4 -67 29 -67 17
0 188 174 202 206 12 24 7 31 -90 132 -57 59 -108 108 -114 110 -6 2 -16 -4
-23 -12z m95 -128 c52 -41 71 -78 39 -78 -10 0 -15 -10 -15 -34 0 -25 -8 -43
-31 -66 l-32 -31 -26 25 c-15 14 -35 26 -44 26 -10 0 -20 7 -23 15 -5 12 -25
15 -95 15 -49 0 -89 -4 -89 -8 0 -11 -109 -3 -132 10 -19 9 -23 59 -9 106 6
24 7 24 159 23 168 -2 222 4 222 25 0 23 19 16 76 -28z"/>
</g>
</svg>
