<?xml version="1.0" standalone="no"?>
<!DOCTYPE svg PUBLIC "-//W3C//DTD SVG 20010904//EN"
 "http://www.w3.org/TR/2001/REC-SVG-20010904/DTD/svg10.dtd">
<svg version="1.0" xmlns="http://www.w3.org/2000/svg"
 width="96.000000pt" height="96.000000pt" viewBox="0 0 96.000000 96.000000"
 preserveAspectRatio="xMidYMid meet">
<metadata>
Created by potrace 1.15, written by Peter Selinger 2001-2017
</metadata>
<g transform="translate(0.000000,96.000000) scale(0.100000,-0.100000)"
fill="none" stroke="none">
<path fill="#FFFFFF" d="M354 881 c-187 -63 -289 -213 -277 -408 13 -224 193 -386 419 -378
208 7 374 177 377 385 1 92 -7 129 -43 200 -46 90 -115 152 -210 190 -74 30
-196 35 -266 11z m124 -32 c-2 -7 -27 -18 -56 -25 -111 -29 -201 -100 -258
-204 -29 -53 -29 -53 -32 -23 -9 94 108 221 233 253 48 13 117 12 113 -1z
m202 -79 c13 -9 13 -10 0 -10 -8 0 -22 5 -30 10 -13 9 -13 10 0 10 8 0 22 -5
30 -10z m-65 -41 c187 -113 176 -378 -19 -482 -59 -31 -183 -31 -242 0 -219
116 -199 423 33 509 24 9 63 13 105 11 55 -4 78 -11 123 -38z"/>
<path fill="#FFFFFF" d="M405 618 c-47 -27 -65 -62 -65 -123 0 -72 31 -114 101 -136 41 -13
92 -1 128 30 60 52 59 152 -3 208 -31 29 -43 33 -88 33 -29 0 -62 -6 -73 -12z
m104 -64 c23 -19 31 -34 31 -59 0 -70 -77 -91 -124 -34 -32 37 -33 65 -4 96
28 30 59 29 97 -3z"/>
</g>
</svg>
