<?xml version="1.0" standalone="no"?>
<!DOCTYPE svg PUBLIC "-//W3C//DTD SVG 20010904//EN"
 "http://www.w3.org/TR/2001/REC-SVG-20010904/DTD/svg10.dtd">
<svg version="1.0" xmlns="http://www.w3.org/2000/svg"
 width="96.000000pt" height="96.000000pt" viewBox="0 0 96.000000 96.000000"
 preserveAspectRatio="xMidYMid meet">
<metadata>
Created by potrace 1.15, written by Peter Selinger 2001-2017
</metadata>
<g transform="translate(0.000000,96.000000) scale(0.100000,-0.100000)"
fill="none" stroke="none">
<path fill="#000000" d="M222 727 c-182 -182 -212 -216 -212 -242 0 -26 30 -60 213 -243 182
-182 216 -212 242 -212 26 0 60 30 243 213 182 182 212 216 212 242 0 26 -30
60 -213 243 -182 182 -216 212 -242 212 -26 0 -60 -30 -243 -213z m465 -23
c112 -113 203 -212 203 -220 0 -18 -406 -424 -425 -424 -24 0 -425 401 -425
424 0 28 397 426 425 426 13 0 92 -73 222 -206z"/>
<path fill="#000000" d="M343 706 c-82 -39 -143 -138 -143 -235 0 -51 38 -135 78 -174 42 -41
124 -77 173 -77 144 0 259 116 259 261 0 100 -64 197 -156 235 -54 22 -150 18
-211 -10z m153 -47 c15 -24 -43 -46 -71 -26 -10 8 -15 19 -11 25 9 15 73 16
82 1z m-88 -84 c22 -25 43 -45 47 -45 4 0 26 20 48 46 27 31 46 44 61 42 37
-5 31 -37 -18 -84 -25 -24 -46 -46 -46 -49 0 -3 21 -25 46 -49 49 -47 55 -79
18 -84 -15 -2 -34 11 -61 42 -22 26 -44 46 -48 46 -4 0 -26 -20 -48 -46 -27
-31 -46 -44 -61 -42 -37 5 -31 37 18 84 25 24 46 47 46 52 0 5 -13 18 -30 30
-38 29 -64 68 -56 87 10 27 44 16 84 -30z m-88 -89 c0 -15 -29 -56 -39 -56
-13 0 -19 73 -8 94 9 19 10 19 28 -3 11 -13 19 -28 19 -35z m333 18 c5 -17 4
-40 -2 -57 -9 -24 -14 -26 -31 -17 -28 15 -36 55 -15 86 20 31 37 27 48 -12z
m-158 -170 c49 -32 19 -59 -56 -52 -39 4 -52 34 -23 55 24 17 49 16 79 -3z"/>
</g>
</svg>
