<?xml version="1.0" standalone="no"?>
<!DOCTYPE svg PUBLIC "-//W3C//DTD SVG 20010904//EN"
 "http://www.w3.org/TR/2001/REC-SVG-20010904/DTD/svg10.dtd">
<svg version="1.0" xmlns="http://www.w3.org/2000/svg"
 width="64.000000pt" height="64.000000pt" viewBox="0 0 64.000000 64.000000"
 preserveAspectRatio="xMidYMid meet">
<metadata>
Created by potrace 1.15, written by Peter Selinger 2001-2017
</metadata>
<g transform="translate(0.000000,64.000000) scale(0.100000,-0.100000)"
fill="none" stroke="none">
<path fill="#000000" d="M367 563 c-11 -13 -14 -31 -10 -66 l6 -49 -159 2 c-87 1 -165 1 -171
1 -10 -1 -13 -29 -13 -106 0 -77 3 -105 13 -106 6 0 84 0 171 1 l159 2 -6 -50
c-5 -40 -2 -53 12 -66 10 -9 20 -16 24 -16 15 0 224 224 222 239 -2 17 -208
231 -223 231 -5 0 -16 -8 -25 -17z m111 -156 c23 -23 42 -52 42 -64 0 -19 -83
-113 -101 -113 -4 0 -26 15 -48 34 -48 40 -102 52 -190 43 -64 -7 -101 9 -101
43 0 31 32 40 140 40 102 0 141 10 169 44 21 26 44 19 89 -27z"/>
</g>
</svg>
