<?xml version="1.0" standalone="no"?>
<!DOCTYPE svg PUBLIC "-//W3C//DTD SVG 20010904//EN"
 "http://www.w3.org/TR/2001/REC-SVG-20010904/DTD/svg10.dtd">
<svg version="1.0" xmlns="http://www.w3.org/2000/svg"
 width="96.000000pt" height="96.000000pt" viewBox="0 0 96.000000 96.000000"
 preserveAspectRatio="xMidYMid meet">
<metadata>
Created by potrace 1.15, written by Peter Selinger 2001-2017
</metadata>
<g transform="translate(0.000000,96.000000) scale(0.100000,-0.100000)"
fill="none" stroke="none">
<path fill="#000000" d="M302 945 c-7 -8 -24 -15 -37 -15 -37 0 -93 -38 -125 -85 -32 -47 -40
-95 -15 -95 8 0 15 4 15 9 0 4 11 20 25 35 19 20 33 26 66 26 64 0 159 -22
159 -37 0 -7 -20 -21 -44 -32 -64 -30 -129 -98 -167 -177 -32 -65 -34 -75 -33
-169 0 -86 4 -108 26 -157 50 -108 164 -205 266 -227 98 -21 207 -9 286 31 57
29 144 115 172 170 54 106 54 259 1 359 -29 55 -92 126 -128 145 -28 14 -29
17 -29 93 0 107 -15 120 -69 60 -38 -42 -39 -43 -62 -26 -72 52 -106 70 -142
75 -21 2 -41 11 -44 18 -7 19 -104 18 -121 -1z m162 -49 c36 -19 80 -45 98
-57 17 -13 50 -26 72 -29 36 -4 41 -9 49 -40 13 -55 27 -183 21 -203 -5 -17
-23 -17 -84 3 -14 4 -45 14 -70 21 -25 7 -57 20 -72 29 l-27 16 29 33 c17 18
30 38 30 45 0 19 -71 82 -127 112 -73 40 -79 48 -63 79 19 36 64 33 144 -9z
m-4 -163 c11 -14 17 -29 13 -33 -4 -4 -27 -21 -51 -39 -40 -31 -42 -35 -27
-51 8 -9 41 -23 73 -30 31 -7 62 -15 67 -19 6 -4 30 -13 55 -20 58 -17 109
-40 90 -41 -8 0 -48 7 -87 17 -40 9 -76 14 -80 10 -11 -12 3 -18 49 -24 44 -5
54 -8 121 -37 49 -21 50 -21 43 9 -5 21 -3 25 15 25 19 0 21 4 16 38 -8 48 1
82 19 75 8 -3 14 0 14 6 0 6 -6 11 -14 11 -15 0 -33 57 -21 68 6 7 46 -35 91
-95 20 -27 28 -46 55 -139 24 -87 -31 -251 -109 -327 -64 -61 -134 -90 -229
-95 -47 -3 -94 0 -106 5 -132 59 -141 65 -124 74 12 7 17 23 17 59 0 43 3 50
20 50 21 0 31 -25 27 -70 -1 -16 4 -26 16 -28 14 -3 17 4 17 43 0 63 -13 85
-51 85 -27 0 -30 3 -27 28 2 21 -1 28 -19 30 -21 3 -22 0 -25 -84 -2 -55 -7
-89 -15 -91 -19 -7 -83 134 -83 183 0 25 5 44 13 47 9 3 9 9 0 28 -32 66 -21
154 27 225 29 42 150 134 177 134 6 0 21 -12 33 -27z"/>
<path fill="#000000" d="M781 595 c2 -6 11 -27 19 -47 17 -46 32 -49 28 -7 -2 20 -12 38 -27
48 -13 8 -22 11 -20 6z"/>
<path fill="#000000" d="M375 550 c-3 -5 3 -10 15 -10 12 0 18 5 15 10 -3 6 -10 10 -15 10 -5
0 -12 -4 -15 -10z"/>
<path fill="#000000" d="M455 530 c3 -5 13 -10 21 -10 8 0 12 5 9 10 -3 6 -13 10 -21 10 -8 0
-12 -4 -9 -10z"/>
<path fill="#000000" d="M377 473 c-10 -10 -8 -53 2 -53 6 0 13 5 16 10 8 13 55 13 55 1 0 -6
-6 -13 -12 -17 -9 -6 -5 -10 12 -14 16 -4 26 -14 28 -28 3 -21 22 -32 22 -12
0 6 7 10 15 10 8 0 15 5 15 10 0 6 -7 10 -16 10 -19 0 -44 24 -44 43 0 32 -71
63 -93 40z"/>
<path fill="#000000" d="M458 271 c-15 -27 -15 -31 -1 -42 9 -8 13 -23 9 -39 -9 -45 39 -92
60 -58 4 6 0 16 -9 23 -22 16 -22 71 -1 79 26 10 44 -13 44 -55 0 -27 5 -41
19 -48 26 -14 48 10 26 29 -20 16 -19 66 1 74 13 5 13 9 -3 31 -22 30 -28 30
-53 5 -22 -22 -46 -18 -53 11 -7 27 -19 24 -39 -10z"/>
<path fill="#000000" d="M677 262 l-38 -3 3 -92 c2 -74 6 -92 18 -92 9 0 16 11 18 28 3 22 8
27 31 27 50 0 84 62 56 103 -18 28 -34 33 -88 29z m51 -65 c4 -33 -22 -47 -45
-25 -12 13 -13 20 -3 37 15 30 44 23 48 -12z"/>
</g>
</svg>
