<?xml version="1.0" standalone="no"?>
<!DOCTYPE svg PUBLIC "-//W3C//DTD SVG 20010904//EN"
 "http://www.w3.org/TR/2001/REC-SVG-20010904/DTD/svg10.dtd">
<svg version="1.0" xmlns="http://www.w3.org/2000/svg"
 width="96.000000pt" height="96.000000pt" viewBox="0 0 96.000000 96.000000"
 preserveAspectRatio="xMidYMid meet">
<metadata>
Created by potrace 1.15, written by Peter Selinger 2001-2017
</metadata>
<g transform="translate(0.000000,96.000000) scale(0.100000,-0.100000)"
fill="none" stroke="none">
<path fill="#000000" d="M336 945 c-3 -8 -13 -15 -23 -15 -29 1 -313 -84 -313 -93 0 -5 41
-67 91 -139 l91 -130 -18 -41 c-14 -31 -19 -65 -19 -132 1 -80 4 -97 32 -156
39 -80 120 -159 200 -197 51 -24 70 -27 158 -26 129 0 192 23 276 102 72 66
105 126 121 221 26 152 -38 302 -166 390 -83 58 -231 88 -300 61 -19 -7 -36
-4 -71 11 -50 22 -51 24 -30 66 8 16 18 44 21 61 6 29 4 32 -19 32 -14 0 -27
-7 -31 -15z m-16 -115 c0 -20 6 -33 18 -37 9 -4 42 -22 74 -40 82 -48 145
-155 131 -225 l-6 -29 -56 58 c-59 60 -125 100 -174 105 -29 3 -33 -2 -68 -75
l-13 -29 -9 29 c-14 45 -67 156 -84 175 -17 19 -11 48 9 48 7 0 36 11 63 24
28 14 65 25 83 25 29 1 32 -2 32 -29z m275 -86 c14 -15 25 -31 25 -35 0 -5 7
-9 15 -9 8 0 28 -15 44 -32 110 -123 102 -111 116 -172 l6 -29 13 24 c25 49
25 68 0 88 -13 10 -24 26 -24 35 0 9 -4 16 -8 16 -14 0 -35 47 -27 60 8 13 65
-35 65 -56 0 -6 11 -22 24 -35 22 -23 29 -39 57 -135 24 -87 -31 -251 -109
-327 -64 -61 -134 -90 -229 -95 -47 -3 -94 0 -106 6 -12 5 -49 22 -82 37 -49
22 -56 28 -42 36 12 7 17 23 17 59 0 43 3 50 20 50 21 0 31 -25 27 -70 -1 -16
4 -26 16 -28 14 -3 17 4 17 43 0 63 -13 85 -51 85 -27 0 -30 3 -27 28 2 21 -1
28 -19 30 -21 3 -22 0 -25 -84 -2 -56 -7 -89 -15 -91 -17 -6 -83 137 -83 181
0 31 3 36 23 36 12 0 17 4 12 8 -9 6 -17 22 -44 82 -9 21 2 88 12 73 5 -7 17
-13 27 -13 14 0 21 12 30 54 15 74 28 83 80 56 51 -26 126 -94 146 -132 23
-44 -1 -34 -55 22 -34 35 -56 50 -75 50 -34 0 -33 -12 2 -27 15 -7 53 -37 85
-67 58 -56 71 -88 45 -114 -9 -9 -5 -12 19 -12 35 0 44 9 66 70 19 52 23 138
9 193 -11 43 -50 99 -96 139 l-31 27 53 1 c45 0 57 -4 77 -26z"/>
<path fill="#000000" d="M256 488 c-14 -20 -14 -24 1 -40 24 -27 33 -22 33 16 0 43 -14 53
-34 24z"/>
<path fill="#000000" d="M380 439 c0 -11 5 -17 10 -14 6 3 10 13 10 21 0 8 -4 14 -10 14 -5 0
-10 -9 -10 -21z"/>
<path fill="#000000" d="M464 275 c-14 -22 -15 -30 -4 -50 7 -13 10 -31 6 -41 -8 -20 19 -64
39 -64 22 0 30 22 12 35 -22 16 -23 74 -2 81 25 10 45 -16 45 -57 0 -29 5 -41
21 -50 28 -15 45 8 23 32 -19 21 -18 65 2 73 13 5 13 9 -3 31 -22 30 -30 31
-51 4 -18 -22 -52 -18 -52 6 0 26 -19 26 -36 0z"/>
<path fill="#000000" d="M642 168 c2 -75 6 -93 18 -93 9 0 16 11 18 28 3 22 8 27 31 27 52 0
89 73 56 110 -14 15 -31 20 -72 20 l-54 0 3 -92z m86 29 c4 -33 -22 -47 -45
-25 -12 13 -13 20 -3 37 15 30 44 23 48 -12z"/>
</g>
</svg>
