<?xml version="1.0" standalone="no"?>
<!DOCTYPE svg PUBLIC "-//W3C//DTD SVG 20010904//EN"
 "http://www.w3.org/TR/2001/REC-SVG-20010904/DTD/svg10.dtd">
<svg version="1.0" xmlns="http://www.w3.org/2000/svg"
 width="96.000000pt" height="96.000000pt" viewBox="0 0 96.000000 96.000000"
 preserveAspectRatio="xMidYMid meet">
<metadata>
Created by potrace 1.15, written by Peter Selinger 2001-2017
</metadata>
<g transform="translate(0.000000,96.000000) scale(0.100000,-0.100000)"
fill="none" stroke="none">
<path fill="#000000" d="M115 928 c-3 -7 -4 -211 -3 -453 l3 -440 360 0 360 0 3 332 2 331
-57 55 c-32 30 -89 84 -128 120 l-70 66 -233 1 c-177 0 -234 -3 -237 -12z
m497 -55 c128 -118 202 -192 196 -198 -4 -4 -17 2 -29 14 -18 17 -36 21 -85
21 l-63 0 -3 58 c-4 81 -22 71 -26 -15 l-3 -73 80 0 c44 0 92 -5 106 -12 l25
-11 0 -299 0 -298 -335 0 -335 0 0 425 0 425 215 0 216 0 41 -37z"/>
<path fill="#000000" d="M375 639 c-118 -59 -168 -177 -128 -303 63 -199 353 -218 444 -30 61
127 2 285 -127 339 -51 21 -140 19 -189 -6z m173 -25 c18 -8 32 -17 32 -18 0
-2 -20 -13 -44 -26 -30 -15 -54 -21 -73 -17 -15 4 -42 9 -58 12 -22 5 -36 1
-53 -13 -20 -18 -23 -28 -19 -75 3 -44 0 -56 -14 -65 -23 -14 -49 -5 -49 17 1
59 15 95 56 137 24 24 53 44 63 44 11 0 23 5 26 10 10 16 98 12 133 -6z m54
-81 c26 -24 23 -36 -22 -72 -22 -17 -40 -38 -40 -46 0 -8 18 -29 40 -46 45
-36 48 -48 21 -73 -23 -21 -33 -16 -80 37 l-35 38 -43 -45 c-47 -50 -50 -51
-75 -32 -27 20 -22 40 22 75 22 17 40 38 40 45 0 8 -19 30 -42 50 -34 31 -40
40 -31 54 19 30 44 25 87 -17 l42 -42 43 46 c23 25 45 45 48 45 4 0 15 -7 25
-17z m-102 -273 c0 -12 -28 -25 -36 -17 -9 9 6 27 22 27 8 0 14 -5 14 -10z"/>
</g>
</svg>
