<?xml version="1.0" standalone="no"?>
<!DOCTYPE svg PUBLIC "-//W3C//DTD SVG 20010904//EN"
 "http://www.w3.org/TR/2001/REC-SVG-20010904/DTD/svg10.dtd">
<svg version="1.0" xmlns="http://www.w3.org/2000/svg"
 width="96.000000pt" height="96.000000pt" viewBox="0 0 96.000000 96.000000"
 preserveAspectRatio="xMidYMid meet">
<metadata>
Created by potrace 1.15, written by Peter Selinger 2001-2017
</metadata>
<g transform="translate(0.000000,96.000000) scale(0.100000,-0.100000)"
fill="none" stroke="none">
<path fill="#FFFFFF" d="M115 928 c-3 -7 -4 -211 -3 -453 l3 -440 360 0 360 0 3 332 2 331
-57 55 c-32 30 -89 84 -128 120 l-70 66 -233 1 c-177 0 -234 -3 -237 -12z
m497 -55 c128 -118 202 -192 196 -198 -4 -4 -17 2 -29 14 -18 17 -36 21 -85
21 l-63 0 -3 58 c-4 81 -22 71 -26 -15 l-3 -73 80 0 c44 0 92 -5 106 -12 l25
-11 0 -299 0 -298 -335 0 -335 0 0 425 0 425 215 0 216 0 41 -37z"/>
<path fill="#FFFFFF" d="M457 738 c-15 -12 -87 -123 -87 -135 0 -2 -13 -24 -30 -48 -16 -24
-30 -46 -30 -49 0 -4 -59 -102 -110 -183 -11 -18 -11 -24 -1 -37 11 -14 50
-16 277 -16 240 0 264 2 273 18 6 13 -13 53 -83 169 -50 83 -100 169 -110 190
-25 48 -65 103 -75 103 -4 0 -15 -6 -24 -12z m74 -97 c22 -34 39 -69 39 -77 0
-8 5 -14 10 -14 6 0 10 -7 10 -15 0 -9 23 -58 50 -111 28 -53 50 -99 50 -103
0 -16 -444 -30 -459 -15 -6 6 24 65 61 121 15 23 28 44 28 47 0 5 88 154 127
214 22 35 42 24 84 -47z"/>
<path fill="#FFFFFF" d="M460 654 c0 -17 22 -14 28 4 2 7 -3 12 -12 12 -9 0 -16 -7 -16 -16z"/>
<path fill="#FFFFFF" d="M434 606 c-3 -9 -1 -30 5 -47 6 -18 11 -53 11 -79 0 -31 6 -52 15
-60 24 -20 32 -3 41 75 13 124 14 120 -29 123 -26 2 -39 -1 -43 -12z"/>
<path fill="#FFFFFF" d="M356 476 c-9 -14 -16 -30 -16 -36 0 -5 -4 -10 -10 -10 -5 0 -10 -6
-10 -13 0 -7 -9 -23 -20 -35 -11 -12 -20 -26 -20 -32 0 -5 -4 -10 -10 -10 -5
0 -10 -4 -10 -10 0 -5 12 -10 26 -10 19 0 25 4 20 15 -3 8 3 31 14 50 11 19
29 51 40 71 24 42 21 57 -4 20z"/>
<path fill="#FFFFFF" d="M449 381 c-19 -16 -22 -23 -13 -37 20 -33 41 -40 63 -20 26 24 27 52
2 66 -25 13 -25 13 -52 -9z"/>
</g>
</svg>
