<?xml version="1.0" standalone="no"?>
<!DOCTYPE svg PUBLIC "-//W3C//DTD SVG 20010904//EN"
 "http://www.w3.org/TR/2001/REC-SVG-20010904/DTD/svg10.dtd">
<svg version="1.0" xmlns="http://www.w3.org/2000/svg"
 width="96.000000pt" height="96.000000pt" viewBox="0 0 96.000000 96.000000"
 preserveAspectRatio="xMidYMid meet">
<metadata>
Created by potrace 1.15, written by Peter Selinger 2001-2017
</metadata>
<g transform="translate(0.000000,96.000000) scale(0.100000,-0.100000)"
fill="none" stroke="none">
<path fill="#000000" d="M498 953 c-1 -5 -37 -25 -78 -46 -74 -37 -192 -102 -222 -122 -27
-17 -46 -68 -46 -123 -1 -60 17 -109 109 -296 16 -32 29 -64 29 -71 0 -6 -26
-25 -57 -41 -54 -28 -58 -32 -61 -68 -5 -55 4 -80 39 -121 28 -32 36 -35 85
-35 35 0 66 7 89 20 19 11 51 29 70 40 19 11 52 30 73 41 20 12 49 30 64 40
14 11 29 19 33 19 15 0 123 81 138 104 18 27 22 86 8 114 -5 9 -15 31 -22 47
-7 17 -30 55 -50 85 -19 30 -38 62 -42 70 -4 8 -17 33 -30 55 l-24 40 39 37
c34 34 38 43 38 87 0 43 -5 54 -38 90 -35 38 -42 41 -89 41 -28 0 -53 -3 -55
-7z m125 -56 c18 -21 27 -42 27 -65 0 -38 -33 -92 -56 -92 -8 0 -17 -6 -20
-14 -3 -8 -44 -33 -92 -57 -48 -24 -88 -47 -90 -51 -2 -5 -8 -8 -13 -8 -6 0
-19 -9 -31 -20 -12 -11 -19 -20 -16 -20 3 0 56 25 117 55 118 58 141 65 141
40 0 -8 4 -15 8 -15 5 0 14 -16 22 -35 8 -19 17 -35 22 -35 4 0 8 -7 8 -15 0
-8 3 -15 8 -15 4 0 12 -10 18 -23 7 -12 26 -49 43 -82 30 -59 41 -125 21 -125
-5 0 -10 -6 -10 -14 0 -14 -71 -66 -90 -66 -5 0 -10 -4 -10 -9 0 -5 -8 -11
-17 -14 -18 -6 -73 -37 -83 -47 -10 -10 -65 -41 -82 -47 -10 -3 -18 -9 -18
-14 0 -5 -7 -9 -15 -9 -8 0 -15 -3 -15 -8 0 -9 -60 -36 -66 -29 -3 3 4 10 15
17 25 13 29 69 9 113 -18 38 -28 33 -28 -14 0 -48 -11 -71 -45 -93 -28 -18
-65 -8 -65 19 0 8 -4 15 -10 15 -5 0 -10 19 -10 43 0 40 3 44 35 57 19 8 35
17 35 22 0 4 6 8 13 8 8 0 21 8 30 18 15 16 14 23 -17 87 -113 234 -116 243
-116 294 0 28 5 51 10 51 6 0 10 -22 10 -50 0 -27 5 -50 10 -50 6 0 10 -6 10
-13 0 -18 24 -67 33 -67 4 0 7 13 7 29 0 21 6 32 20 36 11 4 27 23 35 42 12
29 13 42 3 69 -12 34 -60 67 -84 57 -6 -2 -15 0 -19 6 -3 6 0 11 9 11 8 0 16
3 18 8 2 4 26 18 53 32 28 14 52 27 55 30 3 3 30 18 60 33 30 15 71 37 90 48
45 25 86 17 123 -24z m-355 -220 c14 -30 8 -67 -12 -67 -22 0 -36 24 -36 63 0
31 3 38 17 35 10 -2 24 -16 31 -31z"/>
<path fill="#000000" d="M420 794 c-16 -8 -19 -14 -9 -14 8 0 24 7 35 15 24 18 7 18 -26 -1z"/>
<path fill="#000000" d="M475 609 c-38 -22 -89 -48 -112 -59 -24 -11 -43 -27 -43 -35 0 -8 3
-15 6 -15 15 0 234 122 234 130 0 20 -19 16 -85 -21z"/>
<path fill="#000000" d="M447 520 c-62 -32 -104 -61 -98 -65 12 -7 204 86 231 111 33 32 -28
11 -133 -46z"/>
<path fill="#000000" d="M594 531 c-7 -7 -93 -53 -203 -111 -16 -8 -20 -15 -12 -23 7 -7 14
-7 23 0 7 6 54 32 103 58 98 52 122 69 108 78 -6 4 -14 3 -19 -2z"/>
<path fill="#000000" d="M605 466 c-11 -7 -62 -35 -112 -60 -81 -41 -113 -66 -85 -66 17 0
242 122 242 131 0 13 -23 11 -45 -5z"/>
<path fill="#000000" d="M500 343 c-79 -44 -76 -41 -64 -52 9 -9 141 63 137 75 -4 14 -12 11
-73 -23z"/>
</g>
</svg>
