<?xml version="1.0" standalone="no"?>
<!DOCTYPE svg PUBLIC "-//W3C//DTD SVG 20010904//EN"
 "http://www.w3.org/TR/2001/REC-SVG-20010904/DTD/svg10.dtd">
<svg version="1.0" xmlns="http://www.w3.org/2000/svg"
 width="96.000000pt" height="96.000000pt" viewBox="0 0 96.000000 96.000000"
 preserveAspectRatio="xMidYMid meet">
<metadata>
Created by potrace 1.15, written by Peter Selinger 2001-2017
</metadata>
<g transform="translate(0.000000,96.000000) scale(0.100000,-0.100000)"
fill="none" stroke="none">
<path fill="#000000" d="M688 951 c-3 -9 -102 -73 -133 -86 -11 -4 -67 -9 -125 -9 -95 -1
-110 -4 -151 -28 -25 -15 -51 -34 -59 -42 -7 -9 -22 -16 -35 -16 -32 0 -83
-19 -88 -33 -2 -7 5 -30 15 -52 l19 -40 -5 43 c-5 32 -3 42 8 42 16 0 46 -53
46 -81 0 -10 5 -21 10 -24 5 -3 10 -17 10 -31 0 -13 5 -24 10 -24 6 0 10 -11
10 -24 0 -14 4 -28 10 -31 5 -3 10 -17 10 -30 0 -13 5 -27 10 -30 6 -3 10 -17
10 -30 0 -13 4 -27 10 -30 6 -3 10 -16 10 -28 0 -12 23 -87 50 -167 30 -88 45
-149 40 -154 -6 -6 -13 0 -19 15 l-10 24 0 -27 c-1 -34 10 -41 55 -32 43 8 51
24 31 67 -8 17 -27 68 -42 112 -15 44 -34 93 -42 109 -14 28 -14 30 29 73 66
68 92 77 203 69 101 -8 126 -1 204 58 63 47 66 57 36 139 -15 39 -45 125 -68
190 -39 109 -50 130 -59 108z m12 -111 c0 -11 5 -22 10 -25 6 -3 10 -17 10
-30 0 -13 4 -26 8 -29 4 -3 14 -28 22 -56 8 -28 18 -53 22 -56 19 -12 5 -49
-35 -87 -64 -63 -73 -66 -189 -65 -111 1 -138 -7 -190 -56 l-27 -26 -15 32
c-9 17 -16 38 -16 48 0 9 -4 20 -8 26 -4 5 -14 27 -21 49 -7 22 -16 49 -20 60
-45 109 -46 105 52 158 l82 44 88 -5 c59 -3 92 -1 100 7 6 6 21 11 34 11 13 0
23 4 23 9 0 11 38 19 58 13 6 -2 12 -12 12 -22z"/>
<path fill="#000000" d="M175 520 c-3 -5 -1 -18 4 -27 9 -16 10 -14 11 10 0 28 -5 34 -15 17z"/>
</g>
</svg>
