<?xml version="1.0" standalone="no"?>
<!DOCTYPE svg PUBLIC "-//W3C//DTD SVG 20010904//EN"
 "http://www.w3.org/TR/2001/REC-SVG-20010904/DTD/svg10.dtd">
<svg version="1.0" xmlns="http://www.w3.org/2000/svg"
 width="96.000000pt" height="96.000000pt" viewBox="0 0 96.000000 96.000000"
 preserveAspectRatio="xMidYMid meet">
<metadata>
Created by potrace 1.15, written by Peter Selinger 2001-2017
</metadata>
<g transform="translate(0.000000,96.000000) scale(0.100000,-0.100000)"
fill="none" stroke="none">
<path fill="#FFFFFF" d="M22 935 c-12 -27 -7 -54 12 -56 6 -1 24 -2 41 -3 25 -1 30 -5 31 -26
3 -40 22 -122 38 -160 21 -52 73 -119 101 -132 34 -15 38 -36 13 -56 -79 -62
-142 -176 -154 -276 l-7 -56 -38 0 c-28 0 -39 -5 -44 -19 -6 -19 2 -51 14 -51
3 0 138 -1 299 -2 197 -1 296 2 303 9 6 6 9 21 7 34 -2 20 -10 25 -40 27 -34
3 -38 6 -38 31 0 37 -37 149 -61 182 -10 15 -19 32 -19 37 0 6 -22 30 -50 55
-27 25 -50 49 -50 54 0 5 20 25 44 46 57 47 113 158 124 242 7 59 8 60 38 61
54 2 69 28 40 67 -12 15 -32 17 -167 16 -173 0 -180 -17 -9 -19 58 -1 116 -5
130 -10 l25 -7 -30 -7 c-16 -4 -42 -14 -57 -22 -37 -20 -316 -20 -373 0 -22 8
-53 18 -70 21 -27 7 -28 8 -10 15 11 5 63 9 115 9 52 1 102 6 110 11 10 7 -29
10 -121 10 -135 0 -136 0 -147 -25z m370 -142 c-1 -18 2 -33 8 -33 5 0 10 14
10 30 0 29 1 30 51 30 51 0 51 0 44 -27 -13 -53 -39 -88 -70 -91 -18 -2 -33 2
-41 13 -8 10 -14 12 -19 6 -3 -6 -21 -11 -38 -11 -50 0 -107 -12 -107 -21 0
-5 50 -9 110 -9 61 0 110 -4 110 -9 0 -16 -50 -70 -81 -88 -42 -25 -37 -51 24
-114 54 -57 97 -127 97 -160 0 -14 -7 -19 -25 -19 -20 0 -30 12 -62 80 -21 44
-40 80 -44 80 -5 0 -5 -114 0 -140 2 -9 84 -48 111 -54 14 -3 33 -11 44 -19
15 -11 17 -17 7 -35 -9 -17 -8 -23 6 -31 13 -8 -45 -10 -201 -8 -120 1 -211 4
-202 5 13 3 16 10 11 32 -5 24 -2 30 26 44 18 9 38 16 45 16 8 0 33 11 56 24
l43 24 3 121 3 121 -61 57 c-35 32 -59 62 -56 69 3 7 0 19 -7 26 -19 20 -37
66 -37 93 0 23 3 24 78 28 42 2 97 3 122 3 44 -1 45 -1 42 -33z m-100 -355
c-6 -66 -21 -96 -69 -138 -35 -31 -38 -32 -41 -14 -5 35 36 127 74 167 20 20
37 37 39 37 1 0 0 -24 -3 -52z"/>
<path fill="#FFFFFF" d="M297 194 c-4 -4 -4 -11 -1 -15 6 -11 118 -12 165 -2 33 7 33 7 9 14
-32 9 -165 11 -173 3z"/>
</g>
</svg>
