<?xml version="1.0" standalone="no"?>
<!DOCTYPE svg PUBLIC "-//W3C//DTD SVG 20010904//EN"
 "http://www.w3.org/TR/2001/REC-SVG-20010904/DTD/svg10.dtd">
<svg version="1.0" xmlns="http://www.w3.org/2000/svg"
 width="96.000000pt" height="96.000000pt" viewBox="0 0 96.000000 96.000000"
 preserveAspectRatio="xMidYMid meet">
<metadata>
Created by potrace 1.15, written by Peter Selinger 2001-2017
</metadata>
<g transform="translate(0.000000,96.000000) scale(0.100000,-0.100000)"
fill="none" stroke="none">
<path fill="#FFFFFF" d="M354 881 c-140 -48 -227 -137 -270 -280 -64 -211 82 -448 307 -500
131 -31 271 12 371 111 254 255 66 691 -297 687 -33 0 -83 -8 -111 -18z m187
-47 c44 -14 99 -37 122 -49 41 -24 41 -24 17 -33 -25 -9 -25 -9 7 -16 36 -8
76 -50 98 -104 19 -44 29 -142 15 -142 -5 0 -10 8 -10 18 0 9 -25 49 -55 87
-30 39 -63 87 -72 108 -12 25 -27 39 -43 43 -14 3 -41 11 -60 18 -52 19 -82 4
-126 -66 -13 -20 -48 -55 -77 -77 -49 -36 -57 -39 -101 -34 -38 5 -53 2 -76
-16 -16 -11 -34 -21 -40 -21 -17 0 -11 68 10 115 19 43 113 145 132 145 6 0
24 6 41 14 95 42 115 43 218 10z m20 -123 c106 -113 179 -204 179 -221 0 -14
-38 -65 -96 -131 -78 -87 -102 -109 -123 -109 -35 0 -51 17 -51 55 0 23 11 42
45 75 24 24 42 46 40 49 -3 2 -84 3 -181 2 -193 -3 -204 0 -204 54 0 55 11 58
211 53 99 -3 181 -2 183 1 2 3 -18 28 -45 56 -56 57 -64 93 -27 119 21 15 54
13 69 -3z m249 -281 c0 -77 -85 -193 -177 -240 -64 -33 -163 -44 -234 -25
-127 32 -217 125 -179 185 7 12 30 15 101 15 l93 0 12 -48 c20 -77 64 -113
124 -101 29 6 177 146 223 212 28 40 37 40 37 2z m-620 -65 c0 -41 -16 -46
-30 -9 -14 36 -13 44 10 44 16 0 20 -7 20 -35z"/>
</g>
</svg>
