<?xml version="1.0" standalone="no"?>
<!DOCTYPE svg PUBLIC "-//W3C//DTD SVG 20010904//EN"
 "http://www.w3.org/TR/2001/REC-SVG-20010904/DTD/svg10.dtd">
<svg version="1.0" xmlns="http://www.w3.org/2000/svg"
 width="96.000000pt" height="96.000000pt" viewBox="0 0 96.000000 96.000000"
 preserveAspectRatio="xMidYMid meet">
<metadata>
Created by potrace 1.15, written by Peter Selinger 2001-2017
</metadata>
<g transform="translate(0.000000,96.000000) scale(0.100000,-0.100000)"
fill="none" stroke="none">
<path fill="#000000" d="M112 837 c-22 -23 -22 -28 -22 -363 l0 -341 23 -21 c23 -22 28 -22
363 -22 l341 0 21 23 c22 23 22 28 22 363 l0 341 -23 21 c-23 22 -28 22 -363
22 l-341 0 -21 -23z m706 -19 c19 -19 17 -664 -2 -684 -21 -21 -661 -21 -682
0 -19 20 -21 665 -2 684 17 17 669 17 686 0z"/>
<path fill="#000000" d="M592 718 l3 -43 -80 -3 -80 -3 25 -19 c21 -17 23 -21 10 -30 -8 -6
-42 -9 -75 -8 l-60 3 2 32 c2 17 -1 34 -5 37 -5 3 -35 -21 -67 -54 l-58 -59
58 -53 c74 -68 79 -70 70 -19 l-7 41 81 0 c79 0 99 9 64 29 -29 16 -5 26 60
26 60 0 62 -1 60 -25 -3 -52 7 -50 68 11 l60 60 -59 60 c-33 32 -63 59 -67 59
-3 0 -5 -19 -3 -42z"/>
<path fill="#000000" d="M595 490 c-3 -5 -3 -25 1 -45 l6 -35 -76 0 c-42 0 -76 -3 -76 -6 0
-4 8 -13 18 -20 27 -21 -2 -34 -77 -34 l-63 0 6 34 c4 19 3 37 -2 40 -5 3 -34
-21 -66 -53 l-57 -58 60 -61 c34 -33 63 -56 66 -51 3 5 3 24 -1 44 l-6 35 81
0 c84 0 97 7 59 33 -22 14 -22 15 23 22 25 4 58 5 75 3 24 -2 29 -7 27 -28 -4
-53 7 -52 68 10 l60 62 -60 59 c-33 33 -62 55 -66 49z"/>
</g>
</svg>
