<?xml version="1.0" standalone="no"?>
<!DOCTYPE svg PUBLIC "-//W3C//DTD SVG 20010904//EN"
 "http://www.w3.org/TR/2001/REC-SVG-20010904/DTD/svg10.dtd">
<svg version="1.0" xmlns="http://www.w3.org/2000/svg"
 width="96.000000pt" height="96.000000pt" viewBox="0 0 96.000000 96.000000"
 preserveAspectRatio="xMidYMid meet">
<metadata>
Created by potrace 1.15, written by Peter Selinger 2001-2017
</metadata>
<g transform="translate(0.000000,96.000000) scale(0.100000,-0.100000)"
fill="none" stroke="none">
<path fill="#FFFFFF" d="M210 928 c-60 -12 -127 -44 -156 -73 l-24 -24 0 -248 c0 -220 2 -250
18 -269 25 -30 77 -64 99 -64 10 0 24 -5 30 -11 7 -7 63 -11 142 -12 l132 -2
11 -39 c16 -53 87 -121 145 -140 120 -39 251 12 302 117 25 51 29 160 8 210
-32 76 -94 124 -175 136 l-44 6 1 148 c2 168 -6 190 -78 227 -89 45 -291 64
-411 38z m309 -33 c80 -18 107 -54 77 -100 -8 -12 -31 -30 -50 -39 -20 -9 -36
-21 -36 -26 0 -13 47 -13 55 0 3 6 15 10 25 10 10 0 32 14 49 31 l31 31 0
-142 c0 -138 0 -140 -20 -130 -11 6 -20 15 -20 20 0 5 -7 7 -15 4 -8 -4 -15
-11 -15 -18 0 -6 -17 -21 -38 -33 -20 -11 -54 -36 -75 -53 -30 -27 -35 -35
-25 -47 9 -11 9 -19 0 -34 -7 -11 -15 -40 -19 -64 l-6 -45 -118 0 c-68 0 -120
4 -124 10 -3 5 -15 10 -26 10 -25 0 -58 19 -86 50 -17 18 -23 37 -23 71 l0 46
52 -26 c59 -29 158 -45 158 -25 0 7 -21 15 -50 19 -27 4 -52 11 -56 16 -3 5
-13 9 -24 9 -10 0 -32 13 -49 29 -28 26 -31 35 -31 87 0 53 1 56 18 42 37 -32
90 -49 167 -54 l80 -5 -85 24 c-159 44 -180 63 -180 164 0 49 2 54 18 48 9 -4
27 -10 40 -12 12 -3 25 -9 28 -14 3 -5 17 -9 32 -8 l27 1 -32 14 c-44 19 -60
50 -38 74 15 16 14 18 -7 25 l-23 8 23 4 c12 2 22 9 22 14 0 5 12 9 28 9 15 0
34 5 42 10 17 11 244 7 299 -5z m204 -421 l31 -17 -28 -24 c-29 -25 -37 -25
-103 3 -39 15 -41 27 -10 42 33 16 74 14 110 -4z m-86 -91 l53 -57 54 53 c37
36 60 52 70 48 34 -13 27 -35 -29 -88 l-56 -53 57 -51 c42 -37 56 -56 51 -68
-12 -30 -49 -19 -100 31 l-48 47 -45 -47 c-30 -32 -53 -48 -70 -48 -42 0 -30
39 27 90 l51 45 -51 48 c-28 26 -51 56 -51 65 0 17 18 42 29 42 3 0 29 -26 58
-57z m-89 -50 c18 -33 14 -64 -11 -106 l-24 -39 -16 26 c-23 35 -21 97 5 153
l22 47 6 -29 c4 -17 12 -40 18 -52z m332 -50 c0 -37 -3 -44 -17 -41 -10 2 -23
14 -29 27 -10 20 -10 29 3 47 23 35 43 20 43 -33z m-141 -157 c21 -25 3 -36
-60 -36 -52 0 -60 2 -57 18 2 9 18 25 37 34 35 18 56 14 80 -16z"/>
<path fill="#FFFFFF" d="M610 710 c-9 -5 -13 -22 -12 -44 3 -42 -9 -50 -88 -60 -68 -9 -130
-26 -130 -38 0 -17 126 -7 190 15 l65 23 3 48 c3 53 -5 70 -28 56z"/>
<path fill="#FFFFFF" d="M440 660 c0 -5 7 -10 15 -10 8 0 15 5 15 10 0 6 -7 10 -15 10 -8 0
-15 -4 -15 -10z"/>
</g>
</svg>
