<?xml version="1.0" standalone="no"?>
<!DOCTYPE svg PUBLIC "-//W3C//DTD SVG 20010904//EN"
 "http://www.w3.org/TR/2001/REC-SVG-20010904/DTD/svg10.dtd">
<svg version="1.0" xmlns="http://www.w3.org/2000/svg"
 width="96.000000pt" height="96.000000pt" viewBox="0 0 96.000000 96.000000"
 preserveAspectRatio="xMidYMid meet">
<metadata>
Created by potrace 1.15, written by Peter Selinger 2001-2017
</metadata>
<g transform="translate(0.000000,96.000000) scale(0.100000,-0.100000)"
fill="none" stroke="none">
<path fill="#FFFFFF" d="M203 926 c-28 -6 -55 -14 -59 -18 -4 -5 -15 -8 -24 -8 -9 0 -33 -15
-53 -34 l-37 -34 0 -249 0 -250 25 -27 c36 -39 119 -72 199 -80 38 -4 73 -9
78 -12 4 -3 -2 -18 -13 -34 -17 -23 -19 -34 -12 -57 l10 -28 288 -3 c305 -2
315 -1 315 45 0 19 -177 336 -211 379 -5 7 -11 74 -12 150 -1 101 -6 147 -17
168 -18 34 -87 72 -167 91 -69 17 -237 17 -310 1z m291 -27 c104 -29 132 -58
102 -104 -9 -14 -35 -33 -59 -44 -35 -16 -39 -21 -23 -27 10 -4 27 -2 37 4 10
7 27 12 38 12 10 0 24 7 31 15 7 8 19 15 26 15 17 0 20 -130 3 -147 -8 -8 -4
-24 11 -59 41 -89 136 -278 161 -319 30 -48 51 -96 46 -102 -3 -2 -58 -6 -123
-8 -66 -3 -183 -7 -261 -11 l-143 -5 0 30 c0 29 31 96 85 181 14 22 25 42 25
45 0 3 17 33 38 68 20 34 44 76 52 92 8 17 17 32 20 35 3 3 13 17 23 33 10 15
24 27 32 27 11 0 15 12 15 45 0 35 -3 43 -15 39 -8 -4 -15 -17 -15 -30 0 -17
-6 -24 -20 -24 -12 0 -39 -19 -60 -42 -32 -32 -37 -44 -28 -55 6 -8 17 -12 25
-9 7 3 13 1 13 -3 0 -5 -13 -14 -29 -19 -18 -6 -43 -31 -65 -65 -40 -60 -44
-77 -20 -77 24 0 0 -26 -30 -34 -24 -6 -43 -52 -24 -58 5 -2 6 -11 3 -21 -6
-14 -20 -17 -85 -17 -44 0 -82 4 -85 10 -3 5 -15 10 -26 10 -25 0 -58 19 -86
50 -17 18 -23 37 -23 71 l0 46 58 -28 c57 -29 152 -40 152 -19 0 6 -11 10 -24
10 -42 0 -127 33 -157 61 -26 24 -29 34 -29 85 0 53 1 56 18 42 37 -32 90 -49
167 -54 l80 -5 -85 24 c-159 44 -180 63 -180 164 0 49 2 54 18 48 9 -4 27 -10
40 -12 12 -3 25 -9 28 -14 3 -5 16 -9 30 -9 14 0 22 4 19 10 -3 6 -14 10 -24
10 -10 0 -26 9 -36 20 -17 18 -17 21 -1 45 16 24 16 25 -4 25 -11 0 -20 5 -20
10 0 6 9 10 20 10 11 0 20 5 20 10 0 6 12 10 28 10 15 0 34 5 42 10 21 13 224
12 274 -1z"/>
<path fill="#FFFFFF" d="M403 583 c-13 -2 -23 -9 -23 -14 0 -15 83 -6 88 9 4 12 -19 14 -65 5z"/>
<path fill="#FFFFFF" d="M577 495 c-4 -8 -2 -40 3 -72 6 -32 10 -75 10 -96 0 -38 21 -60 40
-41 10 10 29 193 22 212 -6 17 -69 15 -75 -3z"/>
<path fill="#FFFFFF" d="M583 253 c-30 -11 0 -83 34 -83 16 0 43 35 43 57 0 28 -40 42 -77 26z"/>
</g>
</svg>
