<?xml version="1.0" standalone="no"?>
<!DOCTYPE svg PUBLIC "-//W3C//DTD SVG 20010904//EN"
 "http://www.w3.org/TR/2001/REC-SVG-20010904/DTD/svg10.dtd">
<svg version="1.0" xmlns="http://www.w3.org/2000/svg"
 width="96.000000pt" height="96.000000pt" viewBox="0 0 96.000000 96.000000"
 preserveAspectRatio="xMidYMid meet">
<metadata>
Created by potrace 1.15, written by Peter Selinger 2001-2017
</metadata>
<g transform="translate(0.000000,96.000000) scale(0.100000,-0.100000)"
fill="none" stroke="none">
<path fill="#000000" d="M380 866 c-102 -28 -185 -86 -239 -166 -48 -73 -61 -111 -67 -204
-16 -236 195 -444 428 -423 87 8 126 21 196 66 149 97 217 287 161 453 -57
169 -195 275 -369 284 -36 1 -85 -3 -110 -10z m178 -32 c23 -3 45 -10 48 -15
3 -5 14 -9 26 -9 14 0 18 -5 14 -16 -3 -9 -6 -19 -6 -24 0 -11 -143 -98 -175
-106 -20 -5 -32 1 -58 26 -72 70 -143 76 -179 13 -24 -40 -17 -69 28 -121 19
-22 34 -45 34 -51 0 -6 -25 -58 -55 -116 -58 -111 -63 -114 -80 -35 -11 52
-25 76 -35 60 -13 -21 -24 74 -11 98 6 11 11 30 11 40 0 84 172 252 258 252
15 0 34 5 42 10 14 10 39 9 138 -6z m-166 -200 l83 -85 84 86 c69 70 89 85
110 83 22 -3 26 -9 28 -38 2 -32 -4 -41 -77 -105 -43 -38 -79 -75 -79 -81 -1
-6 35 -46 79 -88 85 -81 100 -115 60 -136 -28 -15 -44 -4 -128 84 -40 42 -74
76 -77 76 -3 0 -37 -34 -77 -76 -81 -85 -96 -95 -126 -87 -16 4 -22 13 -22 35
0 25 15 45 83 109 l82 79 -82 80 c-65 63 -83 87 -83 109 0 34 6 41 36 41 16 0
50 -27 106 -86z m411 -52 c26 -44 34 -156 16 -216 -30 -102 -133 -205 -235
-235 -57 -17 -187 -10 -230 13 -31 16 -71 53 -63 59 2 2 22 14 44 27 22 13 59
41 82 62 24 21 48 38 56 38 13 0 50 -23 81 -52 26 -23 79 -48 106 -48 28 0 80
52 80 81 0 25 -30 79 -72 127 -15 18 -28 42 -28 53 0 11 23 45 52 75 60 63 82
66 111 16z"/>
</g>
</svg>
