<?xml version="1.0" standalone="no"?>
<!DOCTYPE svg PUBLIC "-//W3C//DTD SVG 20010904//EN"
 "http://www.w3.org/TR/2001/REC-SVG-20010904/DTD/svg10.dtd">
<svg version="1.0" xmlns="http://www.w3.org/2000/svg"
 width="96.000000pt" height="96.000000pt" viewBox="0 0 96.000000 96.000000"
 preserveAspectRatio="xMidYMid meet">
<metadata>
Created by potrace 1.15, written by Peter Selinger 2001-2017
</metadata>
<g transform="translate(0.000000,96.000000) scale(0.100000,-0.100000)"
fill="none" stroke="none">
<path fill="#000000" d="M365 861 c-79 -21 -175 -88 -220 -156 -126 -191 -80 -440 106 -564
69 -46 109 -60 195 -68 139 -13 284 56 364 172 139 202 57 490 -169 593 -45
20 -74 26 -151 28 -52 2 -108 0 -125 -5z m28 -61 c-1 -8 -9 -35 -18 -59 -14
-39 -14 -46 0 -67 21 -32 20 -36 -25 -85 -22 -24 -40 -47 -40 -50 0 -3 10 -5
23 -5 21 1 22 -3 29 -109 10 -158 17 -192 41 -221 32 -36 84 -42 121 -13 43
34 54 74 62 215 5 104 3 138 -9 173 -15 42 -15 47 4 84 18 34 19 41 6 55 -8
10 -17 32 -21 51 l-6 33 38 -7 c20 -3 49 -14 64 -24 34 -21 138 -140 138 -158
0 -7 4 -13 9 -13 10 0 20 -43 28 -117 11 -119 -62 -254 -179 -326 -64 -40
-192 -58 -259 -36 -85 27 -106 43 -219 165 -45 48 -75 202 -55 277 27 104 92
188 171 226 16 7 36 17 44 22 23 13 55 6 53 -11z m129 -37 c23 -21 24 -85 2
-104 -9 -7 -31 -13 -49 -13 -18 0 -40 6 -49 13 -21 18 -21 79 1 103 20 22 70
23 95 1z m2 -182 c14 -23 16 -332 2 -353 -7 -12 -23 -18 -49 -18 -65 0 -68 8
-66 195 2 164 2 166 26 185 29 22 72 18 87 -9z"/>
</g>
</svg>
