<?xml version="1.0" standalone="no"?>
<!DOCTYPE svg PUBLIC "-//W3C//DTD SVG 20010904//EN"
 "http://www.w3.org/TR/2001/REC-SVG-20010904/DTD/svg10.dtd">
<svg version="1.0" xmlns="http://www.w3.org/2000/svg"
 width="96.000000pt" height="96.000000pt" viewBox="0 0 96.000000 96.000000"
 preserveAspectRatio="xMidYMid meet">
<metadata>
Created by potrace 1.15, written by Peter Selinger 2001-2017
</metadata>
<g transform="translate(0.000000,96.000000) scale(0.100000,-0.100000)"
fill="none" stroke="none">
<path fill="#FFFFFF" d="M210 928 c-60 -12 -127 -44 -156 -73 l-24 -24 0 -248 c0 -220 2 -250
18 -269 25 -30 77 -64 99 -64 10 0 24 -5 29 -10 6 -6 70 -13 144 -18 l134 -7
10 -33 c5 -19 29 -53 52 -77 99 -98 251 -99 350 0 52 53 67 97 62 189 -3 59
-9 81 -31 114 -35 54 -95 93 -152 100 l-45 5 0 149 c0 170 -7 191 -79 228 -89
45 -291 64 -411 38z m309 -33 c80 -18 107 -54 77 -100 -8 -12 -31 -30 -50 -39
-20 -9 -36 -21 -36 -26 0 -13 47 -13 55 0 3 6 15 10 25 10 10 0 32 14 49 31
l31 31 0 -136 c0 -77 -4 -136 -9 -136 -5 0 -16 7 -25 15 -14 14 -17 14 -36 -5
-11 -11 -22 -20 -25 -20 -10 0 -109 -76 -125 -95 -13 -15 -12 -19 5 -31 26
-19 28 -18 49 16 33 57 119 99 173 85 l28 -7 -25 -13 -25 -14 36 -1 c54 0 68
-47 25 -75 -34 -23 -66 -5 -66 35 0 33 -19 42 -21 10 -1 -11 -3 -32 -5 -47
-15 -124 -15 -213 -1 -243 13 -26 14 -32 2 -36 -23 -9 -66 18 -109 70 -40 47
-41 50 -41 122 0 77 -5 84 -40 58 -16 -12 -18 -18 -7 -34 6 -11 12 -29 12 -40
0 -19 -6 -20 -119 -20 -69 0 -122 4 -126 10 -3 5 -15 10 -26 10 -25 0 -58 19
-86 50 -17 18 -23 37 -23 71 l0 46 52 -26 c59 -29 158 -45 158 -25 0 7 -21 15
-50 19 -27 4 -52 11 -56 16 -3 5 -13 9 -24 9 -10 0 -32 13 -49 29 -28 26 -31
35 -31 87 0 53 1 56 18 42 37 -32 90 -49 167 -54 l80 -5 -85 24 c-159 44 -180
63 -180 164 0 49 2 54 18 48 9 -4 27 -10 40 -12 12 -3 25 -9 28 -14 3 -5 17
-9 32 -8 l27 1 -32 14 c-44 19 -60 50 -38 74 15 16 14 18 -7 25 l-23 8 23 4
c12 2 22 9 22 14 0 5 12 9 28 9 15 0 34 5 42 10 17 11 244 7 299 -5z m314
-485 c10 -16 24 -36 32 -44 9 -8 18 -35 21 -59 8 -54 -14 -104 -64 -153 -50
-48 -62 -45 -49 12 8 33 7 69 -2 133 -13 96 -5 141 27 141 10 0 26 -13 35 -30z
m-107 -61 c9 -14 9 -194 0 -208 -4 -6 -23 -11 -42 -11 l-34 0 0 108 c0 60 3
112 7 115 11 11 61 8 69 -4z"/>
<path fill="#FFFFFF" d="M606 705 c-10 -10 -13 -26 -10 -44 7 -36 -8 -45 -86 -55 -68 -9 -130
-26 -130 -38 0 -13 109 -9 165 6 87 23 95 30 95 86 0 54 -11 68 -34 45z"/>
<path fill="#FFFFFF" d="M440 660 c0 -5 7 -10 15 -10 8 0 15 5 15 10 0 6 -7 10 -15 10 -8 0
-15 -4 -15 -10z"/>
</g>
</svg>
