<?xml version="1.0" standalone="no"?>
<!DOCTYPE svg PUBLIC "-//W3C//DTD SVG 20010904//EN"
 "http://www.w3.org/TR/2001/REC-SVG-20010904/DTD/svg10.dtd">
<svg version="1.0" xmlns="http://www.w3.org/2000/svg"
 width="96.000000pt" height="96.000000pt" viewBox="0 0 96.000000 96.000000"
 preserveAspectRatio="xMidYMid meet">
<metadata>
Created by potrace 1.15, written by Peter Selinger 2001-2017
</metadata>
<g transform="translate(0.000000,96.000000) scale(0.100000,-0.100000)"
fill="none" stroke="none">
<path fill="#000000" d="M401 843 c-17 -21 -31 -41 -31 -46 0 -5 -13 -28 -30 -52 -16 -24 -30
-46 -30 -50 0 -3 -18 -33 -40 -65 -22 -32 -40 -62 -40 -65 0 -4 -8 -19 -19
-33 -10 -15 -28 -43 -39 -62 -11 -19 -50 -84 -86 -145 -65 -108 -76 -135 -56
-135 6 0 10 5 10 11 0 6 14 30 30 54 17 24 30 46 30 50 0 3 18 33 40 65 22 32
40 64 40 69 0 6 5 11 10 11 6 0 10 5 10 11 0 6 14 30 30 54 17 24 30 48 30 54
0 6 5 11 10 11 6 0 10 7 10 15 0 8 4 15 9 15 5 0 11 8 14 18 6 17 37 72 47 82
3 3 11 15 18 28 6 12 18 32 25 44 40 70 78 86 113 45 10 -12 51 -85 90 -162
39 -77 124 -225 188 -328 64 -104 116 -196 114 -205 -3 -16 -42 -17 -438 -22
-239 -3 -437 -4 -439 -3 -2 2 -7 20 -11 40 l-8 38 -1 -45 c0 -26 4 -51 11 -58
9 -9 123 -12 453 -12 428 0 442 1 460 20 32 35 13 80 -133 318 -130 212 -187
307 -234 392 -52 92 -105 106 -157 43z"/>
<path fill="#000000" d="M440 821 c0 -5 11 -11 25 -13 17 -4 25 -1 25 8 0 8 -11 14 -25 14
-14 0 -25 -4 -25 -9z"/>
<path fill="#000000" d="M424 533 c9 -163 11 -187 20 -201 9 -16 41 -15 53 1 8 9 34 251 33
305 0 6 -8 12 -18 12 -12 0 -22 -14 -31 -45 -12 -41 -15 -44 -27 -28 -18 24
-17 52 2 60 13 5 13 7 2 14 -37 24 -40 13 -34 -118z m66 1 c0 -9 -31 -37 -36
-32 -9 9 8 38 22 38 8 0 14 -3 14 -6z"/>
<path fill="#000000" d="M265 395 c-33 -19 -74 -41 -91 -50 -17 -9 -37 -28 -45 -43 -8 -15
-16 -29 -19 -32 -6 -6 -50 -90 -50 -96 0 -2 5 -4 10 -4 6 0 10 5 10 11 0 31
154 188 185 189 6 0 26 13 45 30 46 38 29 36 -45 -5z"/>
<path fill="#000000" d="M420 270 c-57 -57 30 -140 93 -90 49 39 22 110 -43 110 -17 0 -39 -9
-50 -20z"/>
</g>
</svg>
