<?xml version="1.0" standalone="no"?>
<!DOCTYPE svg PUBLIC "-//W3C//DTD SVG 20010904//EN"
 "http://www.w3.org/TR/2001/REC-SVG-20010904/DTD/svg10.dtd">
<svg version="1.0" xmlns="http://www.w3.org/2000/svg"
 width="96.000000pt" height="96.000000pt" viewBox="0 0 96.000000 96.000000"
 preserveAspectRatio="xMidYMid meet">
<metadata>
Created by potrace 1.15, written by Peter Selinger 2001-2017
</metadata>
<g transform="translate(0.000000,96.000000) scale(0.100000,-0.100000)"
fill="none" stroke="none">
<path fill="#000000" d="M340 878 c-136 -52 -226 -154 -259 -293 -29 -125 16 -279 111 -374
59 -60 170 -112 252 -118 119 -10 230 32 315 117 144 144 159 362 37 528 -102
140 -299 200 -456 140z m205 -18 c3 -5 17 -10 30 -10 22 0 53 -14 114 -52 12
-7 42 -53 67 -103 25 -49 50 -96 56 -102 6 -7 13 -50 15 -95 5 -77 3 -88 -25
-149 -38 -84 -91 -138 -178 -179 -64 -31 -72 -32 -153 -28 -85 5 -109 14 -186
64 -14 9 -35 32 -47 53 -12 20 -33 46 -46 58 -14 13 -31 51 -44 100 -18 64
-23 73 -28 53 -6 -23 -8 -22 -15 14 -5 24 -4 51 4 71 6 17 11 41 11 53 0 11 5
24 10 27 6 3 10 15 10 26 0 10 3 19 8 19 4 0 13 12 20 28 17 34 119 122 144
122 10 0 18 5 18 10 0 6 13 10 29 10 17 0 33 5 36 10 3 6 37 10 75 10 38 0 72
-4 75 -10z"/>
<path fill="#000000" d="M424 803 c-41 -8 -58 -40 -62 -115 -4 -67 -7 -75 -55 -140 -50 -69
-60 -99 -17 -53 13 14 34 25 46 25 19 0 24 -8 33 -50 14 -64 14 -107 1 -115
-5 -3 -10 -28 -10 -55 0 -43 4 -54 35 -85 39 -39 69 -44 115 -20 65 33 86 95
54 157 -10 19 -13 40 -9 57 16 62 37 201 40 256 2 49 -1 62 -16 73 -11 7 -19
18 -19 24 0 6 -10 19 -22 29 -20 18 -62 22 -114 12z m111 -44 c4 -5 2 -56 -4
-112 -6 -56 -13 -127 -15 -158 -5 -66 -20 -99 -44 -99 -32 0 -39 15 -46 95
-12 137 -15 169 -22 217 -3 26 -3 52 1 58 8 13 122 13 130 -1z m-13 -416 c38
-34 13 -110 -38 -114 -47 -5 -64 2 -79 31 -20 38 -19 52 5 78 25 27 85 30 112
5z"/>
</g>
</svg>
