<?xml version="1.0" standalone="no"?>
<!DOCTYPE svg PUBLIC "-//W3C//DTD SVG 20010904//EN"
 "http://www.w3.org/TR/2001/REC-SVG-20010904/DTD/svg10.dtd">
<svg version="1.0" xmlns="http://www.w3.org/2000/svg"
 width="96.000000pt" height="96.000000pt" viewBox="0 0 96.000000 96.000000"
 preserveAspectRatio="xMidYMid meet">
<metadata>
Created by potrace 1.15, written by Peter Selinger 2001-2017
</metadata>
<g transform="translate(0.000000,96.000000) scale(0.100000,-0.100000)"
fill="none" stroke="none">
<path fill="#FFFFFF" d="M388 876 c-18 -12 -43 -37 -56 -56 -20 -31 -22 -43 -19 -122 5 -97
19 -129 68 -156 16 -10 29 -21 29 -25 0 -4 -28 -7 -62 -6 -77 1 -105 -9 -145
-54 -48 -54 -54 -88 -50 -254 l4 -148 321 -3 322 -2 0 160 c0 142 -2 163 -21
196 -42 75 -101 108 -186 105 -68 -2 -88 10 -45 28 15 6 37 27 50 46 18 29 22
49 22 118 0 92 -16 128 -72 170 -40 30 -119 31 -160 3z m140 -33 c45 -42 62
-84 62 -153 0 -65 -11 -92 -50 -127 -48 -44 -134 -24 -166 38 -19 37 -18 43
12 78 19 23 22 31 11 31 -9 0 -22 -7 -31 -15 -8 -8 -17 -15 -20 -15 -11 0 -6
101 5 123 35 70 124 90 177 40z m87 -363 c58 -17 118 -61 137 -100 13 -28 17
-64 18 -167 l0 -133 -44 0 c-41 0 -44 2 -50 31 -3 17 -6 69 -6 114 0 61 -4 86
-15 95 -18 15 -16 24 -18 -125 l-2 -110 -165 0 -165 0 -3 118 c-2 95 -5 117
-17 117 -12 0 -15 -16 -16 -72 0 -40 -4 -93 -7 -118 -6 -40 -10 -45 -32 -45
-23 0 -25 4 -24 42 0 30 -3 40 -13 36 -10 -4 -13 17 -13 103 0 94 3 114 21
144 26 42 56 69 83 75 75 17 269 14 331 -5z"/>
<path fill="#FFFFFF" d="M402 827 c-12 -13 -22 -29 -22 -35 0 -7 -4 -12 -10 -12 -5 0 -10 -7
-10 -15 0 -9 14 1 35 23 19 22 49 44 67 49 l33 11 -36 1 c-25 1 -42 -6 -57
-22z"/>
<path fill="#FFFFFF" d="M286 457 c-34 -20 -66 -55 -66 -71 0 -8 -4 -18 -10 -21 -5 -3 -10
-15 -10 -26 0 -11 5 -17 10 -14 6 3 10 15 10 26 0 25 74 99 100 99 11 0 20 5
20 10 0 13 -30 12 -54 -3z"/>
</g>
</svg>
