<?xml version="1.0" standalone="no"?>
<!DOCTYPE svg PUBLIC "-//W3C//DTD SVG 20010904//EN"
 "http://www.w3.org/TR/2001/REC-SVG-20010904/DTD/svg10.dtd">
<svg version="1.0" xmlns="http://www.w3.org/2000/svg"
 width="96.000000pt" height="96.000000pt" viewBox="0 0 96.000000 96.000000"
 preserveAspectRatio="xMidYMid meet">
<metadata>
Created by potrace 1.15, written by Peter Selinger 2001-2017
</metadata>
<g transform="translate(0.000000,96.000000) scale(0.100000,-0.100000)"
fill="none" stroke="none">
<path fill="#FFFFFF" d="M48 903 c-14 -16 -15 -64 -10 -390 4 -306 7 -375 19 -385 10 -8 62
-11 173 -9 l159 3 3 -54 3 -53 260 0 260 0 0 230 0 230 -44 -4 -44 -3 5 211
c4 171 3 213 -8 222 -10 8 -128 13 -387 15 -348 4 -375 3 -389 -13z m729 -26
c14 -15 7 -111 -11 -149 -12 -26 -15 -42 -8 -55 5 -10 12 -53 15 -95 l5 -78
-50 0 c-44 0 -49 2 -43 18 4 9 9 56 12 104 l5 86 -40 21 c-55 28 -147 29 -176
2 -30 -27 -45 -28 -96 -2 -45 22 -46 22 -100 4 -52 -17 -56 -20 -71 -68 -22
-68 -47 -203 -38 -212 3 -5 11 -35 18 -68 13 -70 46 -110 99 -120 21 -4 43
-11 50 -17 19 -16 14 -56 -7 -68 -24 -13 -181 -13 -214 -1 -31 12 -41 61 -28
145 6 46 5 66 -8 90 -16 33 -29 180 -30 344 -1 144 -29 134 374 130 183 -2
337 -7 342 -11z m-380 -192 c3 -9 2 -96 -3 -193 l-9 -177 -67 -3 -68 -3 0 189
c0 104 3 192 7 195 3 4 35 7 70 7 48 0 65 -4 70 -15z m241 -97 l-3 -111 -70 0
-70 0 -3 111 -3 112 76 0 76 0 -3 -112z m186 -130 c37 -20 -3 -27 -164 -32
-91 -2 -178 -6 -195 -9 -30 -4 -45 6 -45 31 0 9 21 11 93 6 65 -4 109 -1 152
9 60 15 123 13 159 -5z m-333 -148 c-1 -25 -4 -46 -5 -47 -1 -1 -18 -4 -37 -5
-34 -3 -34 -3 -35 42 -2 58 1 62 44 58 l37 -3 -4 -45z m104 -2 l0 -48 -36 0
c-36 0 -37 1 -41 43 -6 55 -3 59 40 55 36 -3 36 -3 37 -50z m100 -3 l-1 -50
-39 0 -39 0 -1 45 c-2 58 0 62 43 58 l37 -3 0 -50z m97 5 c-2 -25 -5 -46 -5
-47 -1 0 -17 -3 -36 -5 -33 -3 -33 -3 -36 42 -1 25 0 49 2 53 3 4 21 7 41 5
l37 -3 -3 -45z m98 2 c0 -27 -2 -51 -5 -54 -3 -2 -18 -3 -34 0 -25 3 -29 9
-34 45 -7 52 -4 57 39 57 l34 0 0 -48z m-412 -82 c7 0 12 -13 12 -34 0 -29 -4
-34 -31 -40 -41 -8 -49 -1 -49 38 0 39 8 49 35 42 11 -3 26 -6 33 -6z m120
-30 c4 -41 -5 -49 -45 -43 -30 5 -33 9 -33 38 0 29 4 34 28 38 42 6 47 3 50
-33z m173 30 c15 0 19 -7 19 -34 0 -30 -3 -34 -32 -39 -43 -6 -48 -2 -48 37 0
37 8 49 28 41 7 -3 22 -5 33 -5z m119 -42 c0 -32 -3 -39 -16 -34 -9 3 -24 6
-35 6 -15 0 -19 7 -19 34 0 30 4 35 28 38 39 5 42 2 42 -44z m-403 -62 c0 -1
3 -19 5 -41 3 -40 3 -40 -33 -43 l-37 -3 -4 46 c-2 26 -2 48 1 50 3 3 61 -5
68 -9z m107 -40 l2 -46 -38 0 -38 0 0 44 c0 43 1 45 33 48 17 2 34 2 36 1 2
-1 4 -22 5 -47z m101 2 l1 -48 -41 0 -41 0 2 48 c1 26 3 48 3 50 1 2 18 2 38
0 37 -3 37 -3 38 -50z m95 12 c0 -16 3 -35 6 -44 5 -13 -2 -16 -38 -16 l-44 0
3 48 c1 26 2 47 2 47 1 1 17 -1 36 -3 31 -4 35 -8 35 -32z m100 -16 l0 -44
-41 0 c-33 0 -40 3 -35 16 3 9 6 28 6 44 0 24 5 29 28 32 39 5 42 2 42 -48z"/>
</g>
</svg>
