<?xml version="1.0" standalone="no"?>
<!DOCTYPE svg PUBLIC "-//W3C//DTD SVG 20010904//EN"
 "http://www.w3.org/TR/2001/REC-SVG-20010904/DTD/svg10.dtd">
<svg version="1.0" xmlns="http://www.w3.org/2000/svg"
 width="96.000000pt" height="96.000000pt" viewBox="0 0 96.000000 96.000000"
 preserveAspectRatio="xMidYMid meet">
<metadata>
Created by potrace 1.15, written by Peter Selinger 2001-2017
</metadata>
<g transform="translate(0.000000,96.000000) scale(0.100000,-0.100000)"
fill="none" stroke="none">
<path fill="#FFFFFF" d="M22 935 c-12 -27 -7 -54 12 -56 6 -1 24 -2 41 -3 25 -1 30 -5 31 -26
3 -40 22 -122 38 -160 21 -52 73 -119 101 -132 34 -15 38 -36 13 -56 -79 -62
-142 -176 -154 -276 l-7 -56 -38 0 c-28 0 -39 -5 -44 -19 -7 -22 2 -48 18 -53
7 -2 114 -2 240 0 l227 4 0 150 0 150 -60 60 c-33 32 -60 62 -60 66 0 4 20 24
44 45 57 47 113 158 124 242 7 59 8 60 38 61 54 2 69 28 40 67 -12 15 -32 17
-167 16 -173 0 -180 -17 -9 -19 58 -1 116 -5 130 -10 l25 -7 -30 -7 c-16 -4
-42 -14 -57 -22 -37 -20 -316 -20 -373 0 -22 8 -53 18 -70 21 -27 7 -28 8 -10
15 11 5 63 9 115 9 52 1 102 6 110 11 10 7 -29 10 -121 10 -135 0 -136 0 -147
-25z m370 -142 c-1 -18 2 -33 8 -33 5 0 10 14 10 30 0 29 1 30 51 30 51 0 51
0 44 -27 -13 -53 -39 -88 -70 -91 -18 -2 -33 2 -41 13 -8 10 -14 12 -19 6 -3
-6 -21 -11 -38 -11 -50 0 -107 -12 -107 -21 0 -5 50 -9 110 -9 61 0 110 -4
110 -9 0 -16 -50 -70 -81 -88 -44 -26 -37 -51 36 -125 64 -66 65 -68 65 -123
0 -94 -31 -66 -90 83 -7 17 -16 32 -20 32 -5 0 -6 -111 -1 -140 1 -7 57 -36
94 -50 26 -9 27 -13 22 -47 -4 -21 -8 -43 -10 -48 -2 -7 -41 -8 -116 -3 -63 5
-143 6 -179 4 -36 -3 -57 -2 -47 0 14 5 17 12 12 34 -5 24 -2 30 26 44 18 9
38 16 45 16 8 0 33 11 56 24 l43 24 3 121 3 121 -61 57 c-35 32 -59 62 -56 69
3 7 0 19 -7 26 -19 20 -37 66 -37 93 0 23 3 24 78 28 42 2 97 3 122 3 44 -1
45 -1 42 -33z m-100 -355 c-6 -66 -21 -96 -69 -138 -35 -31 -38 -32 -41 -14
-5 35 36 127 74 167 20 20 37 37 39 37 1 0 0 -24 -3 -52z"/>
<path fill="#FFFFFF" d="M297 194 c-15 -15 7 -24 56 -24 67 0 104 10 85 21 -15 10 -132 12
-141 3z"/>
<path fill="#FFFFFF" d="M606 523 c-4 -4 -28 -7 -54 -8 -47 0 -47 0 -49 -35 0 -19 1 -25 4
-12 6 31 20 27 28 -9 7 -33 6 -270 -2 -357 -5 -47 -7 -51 -19 -35 -12 16 -13
13 -14 -24 0 -41 1 -43 31 -43 31 0 31 0 27 47 l-3 48 31 -3 c36 -3 57 17 52
50 -2 19 -10 24 -40 26 -46 4 -58 29 -26 54 13 10 31 18 40 18 9 0 20 5 23 10
11 17 40 11 96 -20 30 -16 64 -30 75 -30 26 0 124 31 124 39 5 71 0 276 -6
276 -5 0 -30 -6 -57 -14 -43 -13 -52 -12 -103 8 -54 20 -143 28 -158 14z m139
-43 c22 -11 49 -19 61 -20 11 0 29 -9 39 -20 13 -15 22 -17 36 -9 18 9 19 5
19 -64 0 -69 -2 -75 -25 -85 -14 -6 -25 -16 -25 -21 0 -22 -57 -20 -124 3 -63
22 -73 23 -108 11 l-39 -13 3 107 c2 58 6 105 10 104 4 0 29 5 55 12 27 7 50
13 53 14 3 0 23 -8 45 -19z"/>
</g>
</svg>
