<?xml version="1.0" standalone="no"?>
<!DOCTYPE svg PUBLIC "-//W3C//DTD SVG 20010904//EN"
 "http://www.w3.org/TR/2001/REC-SVG-20010904/DTD/svg10.dtd">
<svg version="1.0" xmlns="http://www.w3.org/2000/svg"
 width="96.000000pt" height="96.000000pt" viewBox="0 0 96.000000 96.000000"
 preserveAspectRatio="xMidYMid meet">
<metadata>
Created by potrace 1.15, written by Peter Selinger 2001-2017
</metadata>
<g transform="translate(0.000000,96.000000) scale(0.100000,-0.100000)"
fill="none" stroke="none">
<path fill="#000000" d="M48 903 c-14 -16 -15 -64 -10 -390 4 -312 7 -375 20 -385 10 -9 50
-11 131 -9 64 1 133 0 152 -4 l36 -7 -5 -54 -5 -54 284 2 284 3 0 215 0 215
-47 -1 c-47 0 -48 1 -54 34 -4 20 -4 122 -2 228 5 158 3 196 -8 205 -10 8
-125 13 -387 15 -348 4 -375 3 -389 -13z m729 -26 c14 -15 7 -111 -11 -149
-13 -28 -15 -41 -7 -57 6 -11 11 -49 11 -84 0 -51 -4 -68 -20 -82 -16 -15 -22
-15 -35 -5 -12 10 -15 35 -15 111 l0 99 -42 21 c-56 29 -141 29 -171 1 -31
-28 -46 -29 -95 -4 -41 22 -44 22 -98 6 -48 -14 -58 -21 -71 -52 -8 -19 -19
-63 -24 -96 -5 -34 -14 -74 -19 -89 -7 -22 -6 -32 5 -44 8 -8 15 -32 15 -54 0
-63 40 -119 101 -141 9 -4 16 -18 17 -36 0 -22 -6 -32 -24 -41 -30 -13 -133
-15 -167 -2 -31 12 -41 61 -28 145 6 46 5 66 -8 90 -16 33 -29 180 -30 344 -1
144 -29 134 374 130 183 -2 337 -7 342 -11z m-379 -287 c3 -123 -2 -154 -25
-146 -13 5 -15 -3 -11 -59 4 -73 2 -75 -68 -75 l-44 0 0 188 c0 104 3 192 7
196 4 4 37 6 73 4 l65 -3 3 -105z m242 -7 c0 -65 -4 -122 -8 -128 -4 -5 -34
-10 -67 -10 -33 0 -63 5 -67 10 -4 6 -8 63 -8 128 l0 117 75 0 75 0 0 -117z
m217 -168 l52 -8 -2 -193 -2 -194 -251 -2 -252 -3 -8 75 c-11 100 -10 303 2
330 3 8 404 4 461 -5z"/>
<path fill="#000000" d="M778 276 c-59 -58 -114 -106 -123 -106 -8 0 -61 45 -117 100 -56 55
-106 100 -110 100 -14 0 24 -49 76 -100 51 -49 54 -56 29 -79 -10 -9 -29 -29
-42 -44 -37 -41 -4 -34 41 8 20 19 41 35 46 35 4 0 19 -11 32 -25 30 -32 60
-32 90 0 13 14 28 25 32 25 5 0 26 -16 46 -35 60 -57 74 -43 17 18 -19 20 -35
40 -35 44 0 4 30 38 66 74 37 37 65 72 62 79 -2 6 -52 -36 -110 -94z"/>
</g>
</svg>
