<?xml version="1.0" standalone="no"?>
<!DOCTYPE svg PUBLIC "-//W3C//DTD SVG 20010904//EN"
 "http://www.w3.org/TR/2001/REC-SVG-20010904/DTD/svg10.dtd">
<svg version="1.0" xmlns="http://www.w3.org/2000/svg"
 width="96.000000pt" height="96.000000pt" viewBox="0 0 96.000000 96.000000"
 preserveAspectRatio="xMidYMid meet">
<metadata>
Created by potrace 1.15, written by Peter Selinger 2001-2017
</metadata>
<g transform="translate(0.000000,96.000000) scale(0.100000,-0.100000)"
fill="none" stroke="none">
<path fill="#000000" d="M22 935 c-12 -27 -7 -54 12 -56 6 -1 24 -2 41 -3 25 -1 30 -5 31 -26
3 -40 22 -122 38 -160 21 -52 73 -119 101 -132 34 -15 38 -36 13 -56 -79 -62
-142 -176 -154 -276 l-7 -56 -38 0 c-40 0 -56 -20 -43 -54 8 -20 -3 -19 191
-16 l163 2 0 -51 0 -51 266 0 266 0 -4 227 -3 226 -218 -2 -218 -2 -39 32
c-22 18 -40 37 -40 44 0 6 20 27 44 48 57 47 113 158 124 242 7 59 8 60 38 61
54 2 69 28 40 67 -12 15 -32 17 -167 16 -173 0 -180 -17 -9 -19 58 -1 116 -5
130 -10 l25 -7 -30 -7 c-16 -4 -42 -14 -57 -22 -37 -20 -316 -20 -373 0 -22 8
-53 18 -70 21 -27 7 -28 8 -10 15 11 5 63 9 115 9 52 1 102 6 110 11 10 7 -29
10 -121 10 -135 0 -136 0 -147 -25z m370 -142 c-1 -18 2 -33 8 -33 5 0 10 14
10 30 0 29 1 30 51 30 51 0 51 0 44 -27 -13 -53 -39 -88 -70 -91 -18 -2 -33 2
-41 13 -8 10 -14 12 -19 6 -3 -6 -21 -11 -38 -11 -50 0 -107 -12 -107 -21 0
-5 50 -9 110 -9 61 0 110 -4 110 -9 0 -16 -50 -70 -81 -88 -37 -22 -38 -54 -2
-88 15 -14 31 -25 36 -25 4 0 5 -4 2 -10 -3 -5 -15 -10 -26 -10 -16 0 -19 -8
-21 -57 0 -32 0 -65 1 -73 14 -76 12 -109 -6 -118 -20 -11 -24 -12 -50 -12
-25 0 -3 -18 27 -22 14 -1 -31 -3 -100 -3 -68 0 -116 1 -107 3 14 3 17 10 12
32 -5 24 -2 30 26 44 18 9 38 16 45 16 8 0 33 11 56 24 l43 24 3 121 3 121
-61 57 c-35 32 -59 62 -56 69 3 7 0 19 -7 26 -19 20 -37 66 -37 93 0 23 3 24
78 28 42 2 97 3 122 3 44 -1 45 -1 42 -33z m-100 -367 c-4 -54 -7 -61 -55
-110 -45 -45 -51 -48 -54 -30 -6 35 34 127 73 167 20 21 38 36 38 35 1 -2 0
-29 -2 -62z m233 -6 c-11 -5 -39 -9 -62 -9 -31 -1 -43 -5 -43 -16 0 -8 -4 -15
-10 -15 -5 0 -10 11 -10 25 0 24 2 25 73 24 49 0 66 -3 52 -9z m-54 -130 c-1
-25 -4 -45 -5 -46 0 -1 -15 -4 -33 -7 -31 -6 -31 -6 -35 41 -3 26 -3 51 0 55
2 4 20 7 40 5 l37 -3 -4 -45z m104 -2 l0 -48 -36 0 c-36 0 -37 1 -41 43 -6 55
-3 59 40 55 36 -3 36 -3 37 -50z m100 -3 l-1 -50 -39 0 -39 0 -1 45 c-2 58 0
62 43 58 l37 -3 0 -50z m97 5 c-2 -25 -5 -46 -5 -47 -1 0 -17 -3 -36 -5 -33
-3 -33 -3 -36 42 -1 25 0 49 2 53 3 4 21 7 41 5 l37 -3 -3 -45z m98 2 c0 -27
-2 -51 -5 -54 -3 -2 -18 -3 -34 0 -25 3 -29 9 -34 45 -7 52 -4 57 39 57 l34 0
0 -48z m-419 -82 c15 0 19 -7 19 -34 0 -29 -4 -34 -31 -40 -41 -8 -49 -1 -49
38 0 37 8 49 28 41 7 -3 22 -5 33 -5z m127 -30 c4 -41 -5 -49 -45 -43 -30 5
-33 9 -33 38 0 29 4 34 28 38 42 6 47 3 50 -33z m173 30 c15 0 19 -7 19 -34 0
-30 -3 -34 -32 -39 -43 -6 -48 -2 -48 37 0 37 8 49 28 41 7 -3 22 -5 33 -5z
m119 -34 c0 -41 -3 -44 -40 -38 -26 4 -30 8 -30 37 0 29 4 34 28 37 38 5 42 1
42 -36z m-404 -70 c1 -1 4 -21 5 -46 l4 -45 -35 1 c-34 0 -35 2 -40 48 -4 25
-4 49 -2 51 3 3 62 -4 68 -9z m109 -43 l0 -48 -40 0 c-26 0 -40 4 -39 13 1 6
2 27 3 46 1 31 4 35 34 38 17 2 34 3 37 2 3 -2 5 -24 5 -51z m100 2 l0 -50
-40 0 -40 0 0 45 c-1 59 1 62 43 58 l36 -3 1 -50z m92 41 c0 -1 3 -21 5 -46
l3 -45 -40 0 -40 0 0 45 c0 25 1 48 3 52 2 6 59 1 69 -6z m103 -40 c0 -42 -2
-44 -32 -49 -43 -6 -48 0 -41 50 5 36 9 42 32 45 38 5 41 1 41 -46z"/>
</g>
</svg>
