<?xml version="1.0" standalone="no"?>
<!DOCTYPE svg PUBLIC "-//W3C//DTD SVG 20010904//EN"
 "http://www.w3.org/TR/2001/REC-SVG-20010904/DTD/svg10.dtd">
<svg version="1.0" xmlns="http://www.w3.org/2000/svg"
 width="96.000000pt" height="96.000000pt" viewBox="0 0 96.000000 96.000000"
 preserveAspectRatio="xMidYMid meet">
<metadata>
Created by potrace 1.15, written by Peter Selinger 2001-2017
</metadata>
<g transform="translate(0.000000,96.000000) scale(0.100000,-0.100000)"
fill="none" stroke="none">
<path fill="#000000" d="M60 950 c0 -5 -9 -10 -20 -10 -39 0 -41 -26 -38 -395 3 -324 5 -356
21 -372 15 -15 40 -18 169 -21 162 -4 209 1 189 21 -25 25 -6 187 22 187 4 0
7 5 7 11 0 6 -9 9 -20 6 -15 -4 -22 1 -26 18 -6 23 -28 34 -74 36 l-25 1 25 8
c41 13 260 12 258 -1 -2 -6 3 -14 10 -16 7 -3 12 5 12 21 l0 26 -175 0 -175 0
0 -40 0 -40 58 2 57 3 0 -80 0 -80 -120 0 -120 0 0 80 0 80 47 -3 47 -3 3 53
3 53 98 3 98 3 -3 32 c-3 28 -13 38 -88 85 -47 29 -95 57 -107 62 -13 5 -23
14 -23 19 0 5 33 28 73 51 39 24 91 56 113 71 l42 29 108 -65 c60 -36 116 -69
124 -74 18 -12 28 -3 -110 -88 -85 -52 -95 -61 -98 -90 l-3 -32 88 -3 88 -3 3
-37 c5 -56 24 -46 20 10 l-3 47 -77 5 c-42 3 -80 8 -84 12 -4 5 -2 8 6 8 12 0
151 94 196 133 13 11 24 25 24 31 0 11 -108 84 -180 122 -19 11 -37 21 -40 24
-3 3 -18 12 -33 19 -25 13 -31 13 -55 -3 -15 -9 -35 -20 -44 -23 -10 -3 -18
-9 -18 -14 0 -5 -5 -9 -10 -9 -6 0 -48 -25 -95 -56 -58 -39 -82 -61 -76 -68 5
-6 59 -45 120 -86 61 -41 111 -78 111 -82 0 -5 -43 -8 -95 -8 l-95 0 0 -44 0
-45 -45 -7 c-25 -3 -48 -10 -50 -15 -3 -4 -7 -51 -8 -103 -2 -52 -5 -98 -8
-101 -3 -3 -14 4 -25 16 -18 20 -19 42 -22 322 -2 165 -1 315 2 333 12 59 43
64 387 64 193 0 307 -4 320 -11 36 -19 44 -58 49 -247 7 -240 24 -247 28 -12
3 190 -4 234 -44 269 -23 20 -35 21 -359 21 -217 0 -335 -4 -335 -10z"/>
<path fill="#000000" d="M732 545 c-17 -63 -22 -115 -12 -115 9 0 23 50 19 66 -1 5 1 16 5 26
4 9 6 29 4 45 -3 24 -5 21 -16 -22z"/>
<path fill="#000000" d="M778 474 c-3 -3 -4 -23 -1 -45 l6 -39 -136 0 c-80 0 -138 -4 -142
-10 -3 -5 -13 -10 -21 -10 -16 0 -52 -34 -71 -68 -16 -26 -17 -116 -3 -143 10
-18 11 -18 45 4 30 19 35 27 35 63 0 31 6 46 26 65 24 23 33 24 142 24 111 0
117 -1 115 -20 -5 -46 7 -48 50 -9 23 22 53 47 67 56 l25 17 -45 38 c-25 21
-54 48 -66 60 -12 13 -23 20 -26 17z"/>
<path fill="#000000" d="M430 405 c0 -19 11 -19 36 0 18 14 18 14 -8 15 -18 0 -28 -5 -28 -15z"/>
<path fill="#000000" d="M880 290 c-18 -13 -24 -27 -22 -45 5 -37 -22 -72 -65 -85 -21 -6 -78
-10 -128 -8 l-90 3 3 27 c3 33 -13 45 -27 20 -6 -11 -33 -34 -61 -52 -27 -18
-50 -35 -50 -39 0 -10 118 -92 127 -89 5 2 8 14 8 28 l0 25 131 0 c108 1 136
4 158 18 47 31 66 74 66 150 0 73 -7 80 -50 47z"/>
</g>
</svg>
