<?xml version="1.0" standalone="no"?>
<!DOCTYPE svg PUBLIC "-//W3C//DTD SVG 20010904//EN"
 "http://www.w3.org/TR/2001/REC-SVG-20010904/DTD/svg10.dtd">
<svg version="1.0" xmlns="http://www.w3.org/2000/svg"
 width="96.000000pt" height="96.000000pt" viewBox="0 0 96.000000 96.000000"
 preserveAspectRatio="xMidYMid meet">
<metadata>
Created by potrace 1.15, written by Peter Selinger 2001-2017
</metadata>
<g transform="translate(0.000000,96.000000) scale(0.100000,-0.100000)"
fill="none" stroke="none">
<path fill="#FFFFFF" d="M554 920 c-30 -18 -33 -69 -5 -94 17 -15 31 -17 95 -11 52 5 76 4 76
-3 0 -6 -19 -29 -42 -51 l-43 -40 -282 -1 c-244 0 -287 -2 -318 -17 l-35 -17
0 -308 c0 -169 3 -308 8 -308 4 0 5 115 4 257 -2 141 -1 275 2 297 10 65 17
66 358 66 l298 0 10 -26 c12 -30 12 -459 1 -524 -8 -45 -9 -45 -10 20 -1 47
-4 61 -11 50 -8 -13 -11 -12 -16 6 -4 14 -18 24 -42 30 -29 7 -38 15 -40 34
-5 36 -10 39 -84 41 -38 1 -68 6 -68 11 0 4 7 8 15 8 8 0 15 3 15 8 0 4 21 20
48 37 26 16 53 35 60 42 7 7 26 20 42 30 17 9 30 21 30 26 0 12 -53 56 -67 57
-7 0 -13 4 -13 8 0 4 -22 19 -50 33 -27 13 -50 27 -50 32 0 4 -6 7 -12 7 -7 0
-24 9 -37 19 -24 18 -25 18 -60 -1 -20 -11 -48 -29 -63 -39 -14 -11 -29 -19
-33 -19 -9 0 -123 -78 -129 -88 -3 -5 44 -42 104 -83 72 -48 105 -76 97 -81
-6 -4 -45 -8 -84 -8 l-73 0 0 -34 c0 -32 -2 -34 -47 -43 l-48 -8 0 -90 0 -90
129 0 129 0 11 32 c12 37 29 33 45 -10 l11 -27 124 0 125 0 14 26 14 27 5 -27
c5 -22 0 -29 -29 -43 -29 -13 -75 -16 -299 -15 -258 0 -266 0 -288 21 -20 19
-24 20 -29 7 -4 -10 3 -22 18 -32 20 -13 64 -15 327 -12 167 2 311 7 320 12
33 16 39 64 37 344 l-1 273 41 44 c23 25 46 45 53 45 7 0 9 -26 6 -84 -5 -78
-4 -86 16 -105 28 -26 58 -27 80 -2 16 17 18 41 16 198 0 125 -4 182 -13 190
-20 19 -332 22 -363 3z m277 -16 c30 -5 39 -13 52 -43 16 -35 16 -50 1 -148
-8 -55 -44 -37 -44 22 0 13 -3 26 -8 29 -4 2 -33 -12 -65 -32 -77 -48 -90 -34
-37 41 26 38 36 59 27 62 -6 2 -47 7 -90 10 -43 4 -76 9 -73 12 3 3 1 14 -4
24 -7 12 -6 19 3 22 17 8 195 8 238 1z m-334 -365 c40 -23 75 -45 78 -49 3 -5
-9 -17 -27 -26 -18 -9 -63 -36 -100 -60 -59 -38 -68 -48 -68 -73 l0 -30 78 -3
77 -3 3 -41 c3 -41 4 -41 40 -40 l37 1 0 -70 0 -70 -110 0 -110 0 0 70 0 70
58 -3 57 -2 0 30 0 30 -155 0 -155 0 0 -30 c0 -29 1 -30 48 -27 l47 2 0 -70 0
-70 -110 0 -110 0 0 70 0 70 47 -3 47 -3 3 43 3 43 88 3 87 3 0 29 c0 31 -26
53 -143 120 -65 36 -64 40 3 78 19 11 62 36 94 56 l59 36 31 -20 c17 -12 64
-39 103 -61z m-114 -297 c-6 -4 -14 -19 -18 -33 -3 -14 -12 -26 -20 -26 -8 0
-17 12 -20 26 -4 14 -12 29 -18 33 -7 4 11 8 38 8 28 0 45 -4 38 -8z"/>
<path fill="#FFFFFF" d="M663 475 c0 -22 2 -30 4 -17 2 12 2 30 0 40 -3 9 -5 -1 -4 -23z"/>
</g>
</svg>
