<?xml version="1.0" standalone="no"?>
<!DOCTYPE svg PUBLIC "-//W3C//DTD SVG 20010904//EN"
 "http://www.w3.org/TR/2001/REC-SVG-20010904/DTD/svg10.dtd">
<svg version="1.0" xmlns="http://www.w3.org/2000/svg"
 width="96.000000pt" height="96.000000pt" viewBox="0 0 96.000000 96.000000"
 preserveAspectRatio="xMidYMid meet">
<metadata>
Created by potrace 1.15, written by Peter Selinger 2001-2017
</metadata>
<g transform="translate(0.000000,96.000000) scale(0.100000,-0.100000)"
fill="none" stroke="none">
<path fill="#FFFFFF" d="M56 930 c-16 -5 -33 -15 -37 -22 -18 -28 -4 -548 15 -573 6 -8 27
-16 46 -18 33 -2 35 -5 40 -42 6 -51 35 -67 114 -63 l60 3 -3 -69 c-2 -59 1
-71 20 -92 l22 -24 252 0 c260 0 307 6 325 40 6 11 10 128 10 278 0 247 -1
261 -21 286 -19 24 -27 26 -92 26 l-72 0 0 70 c0 79 -12 98 -66 109 -29 6 -35
12 -39 41 -8 57 -24 60 -300 59 -135 0 -258 -5 -274 -9z m540 -37 c7 -10 14
-26 14 -35 0 -17 -17 -18 -220 -18 -179 0 -227 -3 -250 -15 l-30 -16 0 -234
c0 -129 -3 -235 -7 -235 -4 0 -20 12 -35 27 l-28 27 0 244 c0 221 2 246 18
258 13 10 76 13 271 14 230 0 255 -2 267 -17z m97 -105 c15 -18 17 -46 17
-267 l0 -247 -35 -17 c-29 -14 -66 -17 -196 -17 -124 0 -160 3 -157 13 3 6 20
14 39 17 28 4 35 10 37 33 3 21 9 27 28 27 19 0 24 -5 24 -25 0 -33 32 -45
113 -44 93 1 110 9 118 49 4 19 4 51 0 70 -5 28 -12 36 -33 38 -28 3 -38 23
-38 81 0 30 -2 33 -12 18 -12 -14 -15 -15 -33 -1 l-20 15 20 12 c11 6 25 12
30 12 6 0 11 12 13 28 3 28 45 58 70 50 6 -3 12 2 12 11 0 11 -9 16 -30 16
-36 0 -50 23 -50 79 0 44 -14 55 -23 20 -5 -19 -11 -21 -41 -15 -20 4 -54 15
-77 25 -37 17 -79 18 -79 2 0 -3 -15 -12 -32 -20 -39 -17 -122 -71 -126 -83
-2 -4 -10 -8 -18 -8 -26 0 -15 -26 25 -58 44 -36 61 -91 30 -99 -9 -3 -20 -15
-23 -26 -3 -12 -21 -33 -41 -46 -36 -24 -52 -58 -41 -87 8 -21 -4 -65 -15 -58
-8 4 -14 510 -6 516 5 4 474 13 502 9 17 -2 38 -12 48 -23z m-161 -92 c37 -21
70 -41 73 -46 10 -16 -5 -35 -38 -49 -77 -34 -127 -72 -127 -97 0 -23 3 -24
70 -24 l70 0 0 -39 c0 -39 1 -40 38 -43 l37 -3 0 -50 0 -50 -90 0 -90 0 -3 53
-3 52 40 0 c37 0 41 3 41 24 l0 24 -126 -3 c-69 -2 -128 -6 -131 -9 -10 -10
-23 4 -23 25 0 17 7 19 71 19 l70 0 -3 27 c-3 27 -37 53 -127 100 -19 10 -36
23 -38 30 -3 7 22 25 54 42 32 16 74 41 93 54 30 22 38 23 55 13 11 -7 50 -30
87 -50z m343 -90 c13 -19 15 -61 13 -266 l-3 -243 -30 -18 c-26 -15 -60 -18
-264 -18 -277 -1 -271 -3 -271 94 l0 62 155 -5 c182 -5 241 5 257 47 5 15 8
99 6 199 l-3 172 62 0 c55 0 65 -3 78 -24z m-525 -92 c0 -8 -7 -14 -15 -14
-10 0 -15 10 -15 26 0 22 2 25 15 14 8 -7 15 -19 15 -26z m28 -168 l-3 -51
-90 0 -90 0 -3 39 c-5 64 -3 66 98 65 l91 -1 -3 -52z"/>
<path fill="#FFFFFF" d="M370 640 c18 -11 84 -11 120 0 17 6 0 8 -55 9 -55 0 -75 -2 -65 -9z"/>
</g>
</svg>
