<?xml version="1.0" standalone="no"?>
<!DOCTYPE svg PUBLIC "-//W3C//DTD SVG 20010904//EN"
 "http://www.w3.org/TR/2001/REC-SVG-20010904/DTD/svg10.dtd">
<svg version="1.0" xmlns="http://www.w3.org/2000/svg"
 width="96.000000pt" height="96.000000pt" viewBox="0 0 96.000000 96.000000"
 preserveAspectRatio="xMidYMid meet">
<metadata>
Created by potrace 1.15, written by Peter Selinger 2001-2017
</metadata>
<g transform="translate(0.000000,96.000000) scale(0.100000,-0.100000)"
fill="none" stroke="none">
<path fill="#000000" d="M60 950 c0 -5 -9 -10 -20 -10 -39 0 -41 -26 -38 -395 3 -324 5 -356
21 -372 15 -16 40 -18 200 -20 100 -2 184 -3 187 -3 3 0 5 -30 5 -67 l0 -68
260 0 260 0 -1 230 0 230 -69 0 -69 0 3 190 c3 203 -4 240 -48 278 -19 15 -52
17 -356 17 -217 0 -335 -4 -335 -10z m661 -20 c40 -22 49 -71 49 -264 l0 -182
-71 -2 c-60 -2 -73 0 -87 17 -14 17 -31 21 -96 23 l-80 3 90 57 c102 65 154
106 154 122 0 11 -107 83 -180 122 -19 11 -37 21 -40 24 -3 3 -18 12 -33 19
-25 13 -31 13 -55 -3 -15 -9 -35 -20 -44 -23 -10 -3 -18 -9 -18 -14 0 -5 -5
-9 -10 -9 -6 0 -48 -25 -95 -56 -58 -39 -82 -61 -76 -68 5 -6 59 -45 120 -86
61 -41 111 -78 111 -82 0 -5 -43 -8 -95 -8 l-95 0 0 -44 0 -45 -45 -7 c-25 -3
-48 -10 -50 -15 -3 -4 -7 -51 -8 -103 -2 -52 -5 -98 -8 -101 -3 -3 -14 4 -25
16 -18 20 -19 42 -22 322 -2 165 -1 315 2 333 11 58 39 63 384 63 191 1 310
-3 323 -9z m-215 -145 c60 -35 116 -69 124 -74 18 -12 28 -3 -110 -88 -86 -52
-95 -61 -98 -91 l-3 -32 90 0 c74 0 91 -3 91 -15 0 -13 -28 -15 -190 -15
l-190 0 0 -40 0 -40 58 2 57 3 0 -80 0 -80 -120 0 -120 0 0 80 0 80 47 -3 47
-3 3 53 3 53 98 3 98 3 -3 32 c-3 28 -13 38 -88 85 -47 29 -95 57 -107 62 -13
5 -23 14 -23 19 0 4 42 34 93 64 50 31 101 62 112 71 11 8 20 16 21 16 1 0 50
-29 110 -65z m299 -335 c17 -6 15 -8 -15 -13 -19 -4 -91 -8 -160 -10 -101 -2
-130 -7 -153 -21 -31 -21 -32 -21 -41 16 l-6 27 82 4 c164 6 273 5 293 -3z
m-403 -17 c2 -35 -4 -74 -16 -104 l-13 -31 -6 54 c-7 59 -24 77 -71 79 -30 1
-30 1 -6 9 14 4 44 8 68 9 33 1 42 -3 44 -16z m109 -123 c-1 -25 -4 -46 -5
-47 0 0 -17 -3 -36 -5 l-35 -3 -3 53 -3 53 43 -3 43 -3 -4 -45z m104 -2 l0
-48 -36 0 c-36 0 -37 1 -41 43 -6 55 -3 59 40 55 37 -3 37 -3 37 -50z m100 -3
l-1 -50 -39 0 -39 0 -1 45 c-2 58 0 62 43 58 l37 -3 0 -50z m97 5 c-2 -25 -5
-46 -5 -47 -1 0 -17 -3 -36 -5 -33 -3 -33 -3 -36 42 -1 25 0 49 2 53 3 4 21 7
41 5 l37 -3 -3 -45z m98 -6 c0 -47 -3 -55 -16 -50 -9 3 -24 6 -34 6 -13 0 -19
10 -23 42 -7 53 -4 58 39 58 l34 0 0 -56z m-526 -77 c-9 -24 -23 -11 -17 14 3
12 9 17 15 11 5 -5 6 -16 2 -25z m107 3 c15 0 19 -7 19 -34 0 -30 -3 -34 -32
-39 -43 -6 -48 -2 -48 37 0 37 8 49 28 41 7 -3 22 -5 33 -5z m127 -30 c4 -41
-5 -49 -45 -43 -30 5 -33 9 -33 38 0 29 4 34 28 38 42 6 47 3 50 -33z m173 30
c15 0 19 -7 19 -34 0 -30 -3 -34 -32 -39 -43 -6 -48 -2 -48 37 0 37 8 49 28
41 7 -3 22 -5 33 -5z m119 -36 c0 -38 -3 -45 -16 -40 -9 3 -24 6 -35 6 -15 0
-19 7 -19 34 0 30 4 35 28 39 15 2 30 5 35 6 4 0 7 -20 7 -45z m-419 -64 c16
0 19 -7 19 -45 0 -45 0 -45 -35 -45 l-35 0 0 51 c0 43 3 50 16 45 9 -3 24 -6
35 -6z m224 -42 l1 -48 -41 0 -41 0 2 48 c1 26 3 48 3 50 1 2 18 2 38 0 37 -3
37 -3 38 -50z m95 12 c0 -16 3 -35 6 -44 5 -13 -2 -16 -38 -16 l-44 0 3 48 c1
26 2 47 2 47 1 1 17 -1 36 -3 31 -4 35 -8 35 -32z m100 -10 l0 -50 -41 0 c-33
0 -40 3 -35 16 3 9 6 28 6 44 0 24 5 29 28 33 15 2 30 5 35 6 4 0 7 -21 7 -49z
m-295 -5 l0 -45 -37 0 -38 0 0 45 0 45 38 0 37 0 0 -45z"/>
</g>
</svg>
