<?xml version="1.0" standalone="no"?>
<!DOCTYPE svg PUBLIC "-//W3C//DTD SVG 20010904//EN"
 "http://www.w3.org/TR/2001/REC-SVG-20010904/DTD/svg10.dtd">
<svg version="1.0" xmlns="http://www.w3.org/2000/svg"
 width="96.000000pt" height="96.000000pt" viewBox="0 0 96.000000 96.000000"
 preserveAspectRatio="xMidYMid meet">
<metadata>
Created by potrace 1.15, written by Peter Selinger 2001-2017
</metadata>
<g transform="translate(0.000000,96.000000) scale(0.100000,-0.100000)"
fill="none" stroke="none">
<path fill="#FFFFFF" d="M120 867 c-51 -24 -50 -19 -48 -387 2 -250 6 -351 15 -366 23 -40 61
-44 378 -44 344 0 385 6 404 62 7 20 11 147 11 345 0 333 -4 369 -48 392 -29
16 -678 14 -712 -2z m688 -26 c37 -23 42 -57 41 -305 -1 -132 -5 -268 -9 -301
l-7 -60 -2 75 c-1 53 -4 71 -11 60 -8 -13 -11 -12 -16 6 -4 15 -18 23 -52 30
-45 9 -47 10 -52 49 l-5 40 -82 3 c-46 2 -83 6 -83 10 0 7 13 16 96 67 55 33
143 99 144 108 0 12 -147 111 -200 134 -8 3 -27 15 -42 25 -33 23 -57 23 -88
-2 -14 -11 -29 -20 -33 -20 -5 0 -28 -13 -52 -30 -24 -16 -48 -30 -54 -30 -6
0 -11 -4 -11 -10 0 -5 -6 -10 -12 -10 -7 0 -28 -13 -45 -28 -31 -26 -32 -28
-15 -43 34 -29 111 -79 121 -79 6 0 11 -3 11 -7 0 -5 20 -21 45 -38 55 -37 45
-45 -62 -45 l-83 0 0 -44 0 -44 -49 -7 c-44 -6 -49 -9 -55 -37 -3 -17 -6 -41
-6 -54 0 -13 -4 -24 -10 -24 -5 0 -10 -7 -10 -15 0 -8 4 -15 9 -15 11 0 21
-38 14 -56 -3 -9 -12 -1 -24 23 -17 34 -19 63 -19 345 l0 307 28 14 c22 12 88
15 347 16 176 0 326 -3 333 -8z m-212 -136 c60 -36 115 -68 123 -73 11 -6 6
-13 -20 -28 -206 -121 -199 -116 -199 -151 l0 -32 88 -3 87 -3 3 -52 3 -53 47
3 47 2 0 -70 0 -70 -120 0 -120 0 0 70 0 70 58 -3 57 -2 0 40 0 40 -175 0
-175 0 0 -40 0 -40 58 2 57 3 0 -70 0 -70 -120 0 -120 0 0 70 0 70 47 -3 47
-3 3 53 3 53 98 3 97 3 0 32 c0 29 -7 36 -83 84 -45 28 -94 57 -110 64 -15 7
-26 17 -24 23 2 6 41 33 88 59 46 27 95 57 109 68 14 10 28 19 31 19 3 0 55
-29 115 -65z m4 -344 c20 -6 15 -8 -28 -13 -29 -3 -55 -8 -58 -11 -10 -9 -17
-114 -10 -150 4 -24 13 -37 27 -40 12 -3 18 -10 15 -15 -3 -6 0 -13 6 -15 7
-3 -27 -5 -77 -6 -59 0 -83 3 -70 9 11 5 16 9 10 10 -5 0 -2 6 7 14 26 19 39
92 27 148 -10 46 -12 48 -52 55 -33 5 -37 8 -22 14 25 10 192 9 225 0z m220
-192 c0 -17 -27 -39 -47 -38 -15 0 -14 2 5 11 12 6 22 17 22 25 0 7 5 13 10
13 6 0 10 -5 10 -11z"/>
</g>
</svg>
