<?xml version="1.0" standalone="no"?>
<!DOCTYPE svg PUBLIC "-//W3C//DTD SVG 20010904//EN"
 "http://www.w3.org/TR/2001/REC-SVG-20010904/DTD/svg10.dtd">
<svg version="1.0" xmlns="http://www.w3.org/2000/svg"
 width="96.000000pt" height="96.000000pt" viewBox="0 0 96.000000 96.000000"
 preserveAspectRatio="xMidYMid meet">
<metadata>
Created by potrace 1.15, written by Peter Selinger 2001-2017
</metadata>
<g transform="translate(0.000000,96.000000) scale(0.100000,-0.100000)"
fill="none" stroke="none">
<path fill="#000000" d="M97 873 c-4 -3 -7 -181 -7 -395 l0 -388 258 0 257 0 65 49 c68 51
150 133 188 188 22 31 22 37 20 290 l-3 258 -386 3 c-212 1 -388 -1 -392 -5z
m753 -268 c0 -135 -4 -245 -8 -245 -4 0 -16 -14 -26 -31 -21 -36 -65 -80 -132
-134 -27 -22 -58 -48 -68 -57 -18 -16 -45 -18 -258 -18 l-238 0 0 365 0 365
365 0 365 0 0 -245z"/>
<path fill="#000000" d="M240 707 c0 -16 17 -17 253 -15 207 3 252 5 252 17 0 11 -45 14 -252
15 -236 1 -253 0 -253 -17z"/>
<path fill="#000000" d="M244 631 c-2 -2 -4 -10 -4 -18 0 -10 49 -13 256 -13 231 0 255 2 252
16 -3 15 -30 17 -251 18 -137 0 -251 -1 -253 -3z"/>
<path fill="#000000" d="M243 537 c-3 -5 -3 -10 0 -13 2 -2 116 -6 253 -7 210 -2 249 0 249
12 0 12 -41 15 -248 15 -137 1 -251 -3 -254 -7z"/>
<path fill="#000000" d="M240 445 c0 -13 28 -15 180 -17 337 -4 324 -5 328 15 3 16 -14 17
-252 17 -221 0 -256 -2 -256 -15z"/>
<path fill="#000000" d="M242 353 c3 -15 19 -17 143 -18 125 0 140 2 143 18 3 16 -9 17 -143
17 -133 0 -146 -2 -143 -17z"/>
<path fill="#000000" d="M598 334 c-11 -16 -30 -151 -25 -171 3 -16 5 -16 11 2 4 11 12 29 17
40 11 23 8 146 -3 129z"/>
</g>
</svg>
